<svg width="51" height="36" viewBox="0 0 51 36" fill="none" xmlns="http://www.w3.org/2000/svg">
<path d="M49.9492 5.58744C49.3613 3.40266 47.6388 1.68051 45.4544 1.0922C41.4634 0 25.4995 0 25.4995 0C25.4995 0 9.536 0 5.54503 1.05056C3.40266 1.63849 1.6381 3.40305 1.05017 5.58744C0 9.57802 0 17.8541 0 17.8541C0 17.8541 0 26.1719 1.05017 30.1208C1.63849 32.3052 3.36064 34.0277 5.54542 34.6161C9.57802 35.7082 25.4999 35.7082 25.4999 35.7082C25.4999 35.7082 41.4634 35.7082 45.4544 34.6577C47.6392 34.0698 49.3613 32.3472 49.9496 30.1628C50.9998 26.1719 50.9998 17.8961 50.9998 17.8961C50.9998 17.8961 51.0418 9.57802 49.9492 5.58744Z" fill="#FF0000"/>
<path d="M20.4165 25.4999L33.6914 17.8541L20.4165 10.2083V25.4999Z" fill="white"/>
</svg>