<svg xmlns="http://www.w3.org/2000/svg" width="36.725" height="24.061" viewBox="0 0 36.725 24.061"><defs><style>.a{fill:#41479b;}.b{fill:#f5f5f5;}.c{fill:#ff4b55;}</style></defs><g transform="translate(0)"><path class="a" d="M36.092,112.337H.633A.633.633,0,0,1,0,111.7V88.909a.633.633,0,0,1,.633-.633H36.092a.633.633,0,0,1,.633.633V111.7A.633.633,0,0,1,36.092,112.337Z" transform="translate(0 -88.276)"/><path class="b" d="M17.729,88.277h-1.1L10.764,92.12V88.277H7.6V92.12L1.733,88.277H.633A.633.633,0,0,0,0,88.91v.5l5.032,3.3H0v3.166H5.032L0,99.172v.5a.633.633,0,0,0,.633.633h1.1L7.6,96.465v3.843h3.166V96.465l5.865,3.843h1.1a.633.633,0,0,0,.633-.633v-.5l-5.032-3.3h5.032V92.709H13.33l5.032-3.3v-.5A.633.633,0,0,0,17.729,88.277Z" transform="translate(0 -88.277)"/><g transform="translate(0 0)"><path class="c" d="M18.363,93.343H10.131V88.277h-1.9v5.066H0v1.9H8.232v5.066h1.9V95.242h8.232Z" transform="translate(0 -88.277)"/><path class="c" d="M6.965,94.094.3,89.769A.623.623,0,0,0,0,90.3v.033l5.8,3.766Z" transform="translate(0 -89.662)"/><path class="c" d="M151.232,92.709l6.339-4.115a.624.624,0,0,0-.537-.318H156.9l-6.828,4.432Z" transform="translate(-139.305 -88.277)"/><path class="c" d="M7.6,194.208l-6.327,4.107a.625.625,0,0,0,.542.325h.119l6.828-4.432Z" transform="translate(-1.178 -186.61)"/><path class="c" d="M164.073,198.057l-5.93-3.849H156.98l6.733,4.371A.627.627,0,0,0,164.073,198.057Z" transform="translate(-145.72 -186.61)"/></g><g transform="translate(6.353 4.215)"><path class="b" d="M91.593,302.824l.478,1.578,1.532-.61a.142.142,0,0,1,.17.213l-.936,1.357,1.432.817a.142.142,0,0,1-.061.265l-1.645.115.254,1.629a.142.142,0,0,1-.245.118l-1.115-1.214-1.115,1.214a.142.142,0,0,1-.245-.118l.254-1.629-1.645-.115a.142.142,0,0,1-.061-.265l1.432-.817L89.141,304a.142.142,0,0,1,.17-.213l1.532.61.478-1.578A.142.142,0,0,1,91.593,302.824Z" transform="translate(-88.573 -291.556)"/><path class="b" d="M374.187,147.092l.234.771.748-.3a.069.069,0,0,1,.083.1l-.457.663.7.4a.069.069,0,0,1-.03.13l-.8.056.124.8a.069.069,0,0,1-.12.058l-.545-.593-.545.593a.069.069,0,0,1-.12-.058l.124-.8-.8-.056a.069.069,0,0,1-.03-.13l.7-.4-.457-.663a.069.069,0,0,1,.083-.1l.748.3.233-.771A.07.07,0,0,1,374.187,147.092Z" transform="translate(-352.331 -147.042)"/><path class="b" d="M301.61,229.568l.233.771.748-.3a.069.069,0,0,1,.083.1l-.457.663.7.4a.069.069,0,0,1-.03.13l-.8.056.124.8a.069.069,0,0,1-.12.058l-.545-.593-.545.593a.069.069,0,0,1-.12-.058l.124-.8-.8-.056a.069.069,0,0,1-.03-.13l.7-.4-.457-.663a.069.069,0,0,1,.083-.1l.748.3.233-.771A.07.07,0,0,1,301.61,229.568Z" transform="translate(-284.959 -223.602)"/><path class="b" d="M442.852,194.257l.234.771.748-.3a.069.069,0,0,1,.083.1l-.457.663.7.4a.069.069,0,0,1-.03.13l-.8.056.124.8a.069.069,0,0,1-.12.058l-.545-.593-.545.593a.069.069,0,0,1-.12-.058l.124-.8-.8-.056a.069.069,0,0,1-.03-.13l.7-.4-.457-.663a.069.069,0,0,1,.083-.1l.748.3.233-.771A.07.07,0,0,1,442.852,194.257Z" transform="translate(-416.07 -190.824)"/><path class="b" d="M374.187,335.5l.234.771.748-.3a.069.069,0,0,1,.083.1l-.457.663.7.4a.069.069,0,0,1-.03.13l-.8.056.124.8a.069.069,0,0,1-.12.058l-.545-.593-.545.593a.069.069,0,0,1-.12-.058l.124-.8-.8-.056a.069.069,0,0,1-.03-.13l.7-.4-.457-.663a.069.069,0,0,1,.083-.1l.748.3.233-.771A.07.07,0,0,1,374.187,335.5Z" transform="translate(-352.331 -321.935)"/><path class="b" d="M407.342,248.807l-.187.562-.592,0a.08.08,0,0,0-.047.144l.477.352-.179.565a.08.08,0,0,0,.122.089l.482-.345.482.345a.08.08,0,0,0,.123-.089l-.179-.565.477-.352a.08.08,0,0,0-.047-.144l-.592,0-.187-.562A.08.08,0,0,0,407.342,248.807Z" transform="translate(-383.679 -241.457)"/></g></g></svg>