<svg xmlns="http://www.w3.org/2000/svg" width="36.631" height="24" viewBox="0 0 36.631 24"><defs><style>.a{fill:#f5f5f5;}.b{fill:#ff4b55;}</style></defs><g transform="translate(0 -88.273)"><g transform="translate(0 88.273)"><path class="a" d="M36,112.273H.632A.632.632,0,0,1,0,111.641V88.9a.632.632,0,0,1,.632-.632H36a.632.632,0,0,1,.632.632v22.736A.632.632,0,0,1,36,112.273Z" transform="translate(0 -88.273)"/><rect class="a" width="20.21" height="24" transform="translate(8.21 0)"/></g><g transform="translate(0 88.273)"><path class="b" d="M.632,88.274A.632.632,0,0,0,0,88.906v22.736a.632.632,0,0,0,.632.632H8.21v-24Z" transform="translate(0 -88.274)"/><path class="b" d="M404.82,88.274h-7.579v24h7.579a.632.632,0,0,0,.632-.632V88.906A.632.632,0,0,0,404.82,88.274Z" transform="translate(-368.821 -88.274)"/><path class="b" d="M161.482,162.443l3.748-2.141-.86-.43a.632.632,0,0,1-.344-.648l.28-2.1-1.587.462a.632.632,0,0,1-.793-.47l-.152-.687-1.49,1.744a.313.313,0,0,1-.546-.256l.636-3.7-.974.266a.631.631,0,0,1-.724-.312l-1.026-1.922v0h0v0l-1.026,1.922a.632.632,0,0,1-.724.312l-.974-.266.636,3.7a.313.313,0,0,1-.546.256l-1.49-1.744-.152.687a.632.632,0,0,1-.793.47l-1.587-.462.28,2.1a.632.632,0,0,1-.344.648l-.86.43,3.748,2.142a.912.912,0,0,1,.4,1.111l-.32.857,3.211-.274a.3.3,0,0,1,.324.306l-.1,3.437h.632l-.1-3.437a.3.3,0,0,1,.324-.306l3.213.274-.32-.857A.912.912,0,0,1,161.482,162.443Z" transform="translate(-139.334 -147.67)"/></g></g></svg>