<svg xmlns="http://www.w3.org/2000/svg" width="36.632" height="24" viewBox="0 0 36.632 24"><defs><style>.a{fill:#41479b;}.b{fill:#f5f5f5;}.c{fill:#ff4b55;}</style></defs><g transform="translate(0 -88.276)"><path class="a" d="M36,112.276H.632A.632.632,0,0,1,0,111.644V88.908a.632.632,0,0,1,.632-.632H36a.632.632,0,0,1,.632.632v22.737A.632.632,0,0,1,36,112.276Z"/><path class="b" d="M36.632,88.908A.632.632,0,0,0,36,88.276H33.174l-11.7,7.666V88.276H15.158v7.666l-11.7-7.666H.632A.632.632,0,0,0,0,88.908v1.633l10.039,6.577H0v6.316H10.039L0,110.011v1.633a.632.632,0,0,0,.632.632H3.457l11.7-7.666v7.666h6.316V104.61l11.7,7.666H36a.632.632,0,0,0,.632-.632v-1.633l-10.039-6.577H36.632V97.118H26.593l10.039-6.577Z"/><g transform="translate(0 88.276)"><path class="c" d="M36.632,98.381H20.211V88.276h-3.79V98.381H0v3.789H16.421v10.105h3.79V102.171H36.632Z" transform="translate(0 -88.276)"/><path class="c" d="M13.035,300.138.25,308.437a.624.624,0,0,0,.614.543h.87l13.622-8.842h-2.32Z" transform="translate(-0.232 -284.98)"/><path class="c" d="M316.28,300.138h-2.32l13.6,8.829a.625.625,0,0,0,.567-.619v-.519Z" transform="translate(-291.497 -284.98)"/><path class="c" d="M0,90.4l11.575,7.513h2.32L.368,89.137a.629.629,0,0,0-.368.57Z" transform="translate(0 -89.075)"/><path class="c" d="M302.458,97.119,315.274,88.8a.623.623,0,0,0-.61-.523h-.9l-13.621,8.842Z" transform="translate(-278.664 -88.277)"/></g></g></svg>