<svg xmlns="http://www.w3.org/2000/svg" width="37.083" height="24.296" viewBox="0 0 37.083 24.296"><defs><style>.a{fill:#f5f5f5;}.b{fill:#ff4b55;}.c{fill:#41479b;}</style></defs><g transform="translate(0 -88.276)"><path class="a" d="M36.443,112.571H.639A.639.639,0,0,1,0,111.932V88.915a.639.639,0,0,1,.639-.639h35.8a.639.639,0,0,1,.639.639v23.017A.64.64,0,0,1,36.443,112.571Z" transform="translate(0 0)"/><g transform="translate(0 88.276)"><path class="b" d="M37.082,90.145H0v-1.23a.639.639,0,0,1,.639-.639h35.8a.639.639,0,0,1,.639.639v1.23Z" transform="translate(0 -88.276)"/><rect class="b" width="37.082" height="1.869" transform="translate(0 7.476)"/><rect class="b" width="37.082" height="1.869" transform="translate(0 3.738)"/><path class="b" d="M37.082,244.967H.639A.639.639,0,0,1,0,244.328V243.1H37.082Z" transform="translate(0 -231.885)"/><rect class="b" width="37.082" height="1.869" transform="translate(0 18.689)"/><path class="b" d="M36.443,399.79H.639A.639.639,0,0,1,0,399.15v-1.23H37.082v1.23A.639.639,0,0,1,36.443,399.79Z" transform="translate(0 -375.494)"/><rect class="b" width="37.082" height="1.869" transform="translate(0 14.951)"/></g><path class="c" d="M16.623,88.277H.639A.639.639,0,0,0,0,88.916v11.8a.639.639,0,0,0,.639.639H16.623a.639.639,0,0,0,.639-.639v-11.8A.639.639,0,0,0,16.623,88.277Z" transform="translate(0 -0.001)"/><g transform="translate(1.032 89.702)"><path class="a" d="M15.016,108.01l.142.424.447,0a.06.06,0,0,1,.035.109l-.36.266.135.427a.06.06,0,0,1-.093.067l-.364-.26-.364.26a.06.06,0,0,1-.093-.067l.135-.427-.36-.266a.06.06,0,0,1,.035-.109l.447,0,.142-.424A.06.06,0,0,1,15.016,108.01Z" transform="translate(-14.253 -107.969)"/><path class="a" d="M15.016,138.665l.142.424.447,0a.06.06,0,0,1,.035.109l-.36.266.135.427a.06.06,0,0,1-.093.067l-.364-.26-.364.26a.06.06,0,0,1-.093-.067l.135-.427-.36-.266a.06.06,0,0,1,.035-.109l.447,0,.142-.424A.06.06,0,0,1,15.016,138.665Z" transform="translate(-14.253 -136.403)"/><path class="a" d="M15.016,169.319l.142.424.447,0a.06.06,0,0,1,.035.109l-.36.266.135.427a.06.06,0,0,1-.093.067l-.364-.26-.364.26a.06.06,0,0,1-.093-.067l.135-.427-.36-.266a.06.06,0,0,1,.035-.109l.447,0,.142-.424A.06.06,0,0,1,15.016,169.319Z" transform="translate(-14.253 -164.837)"/><path class="a" d="M15.016,199.973l.142.424.447,0a.06.06,0,0,1,.035.109l-.36.266.135.427a.06.06,0,0,1-.093.067l-.364-.26-.364.26a.06.06,0,0,1-.093-.067l.135-.427-.36-.266a.06.06,0,0,1,.035-.109l.447,0,.142-.424A.06.06,0,0,1,15.016,199.973Z" transform="translate(-14.253 -193.271)"/><path class="a" d="M15.016,230.626l.142.424.447,0a.06.06,0,0,1,.035.109l-.36.266.135.427a.06.06,0,0,1-.093.067l-.364-.26-.364.26a.06.06,0,0,1-.093-.067l.135-.427-.36-.266a.06.06,0,0,1,.035-.109l.447,0,.142-.424A.06.06,0,0,1,15.016,230.626Z" transform="translate(-14.253 -221.704)"/><path class="a" d="M38.809,123.04l.142.424.447,0a.06.06,0,0,1,.035.109l-.36.266.135.427a.06.06,0,0,1-.093.067l-.364-.26-.364.26a.06.06,0,0,1-.093-.067l.135-.427-.36-.266a.06.06,0,0,1,.035-.109l.447,0,.142-.424A.06.06,0,0,1,38.809,123.04Z" transform="translate(-36.322 -121.91)"/><path class="a" d="M38.809,153.694l.142.424.447,0a.06.06,0,0,1,.035.109l-.36.266.135.427a.06.06,0,0,1-.093.067l-.364-.26-.364.26a.06.06,0,0,1-.093-.067l.135-.427-.36-.266a.06.06,0,0,1,.035-.109l.447,0,.142-.424A.06.06,0,0,1,38.809,153.694Z" transform="translate(-36.322 -150.344)"/><path class="a" d="M38.809,184.348l.142.424.447,0a.06.06,0,0,1,.035.109l-.36.266.135.427a.06.06,0,0,1-.093.067l-.364-.26-.364.26a.06.06,0,0,1-.093-.067l.135-.427-.36-.266a.06.06,0,0,1,.035-.109l.447,0,.142-.424A.06.06,0,0,1,38.809,184.348Z" transform="translate(-36.322 -178.778)"/><path class="a" d="M38.809,215l.142.424.447,0a.06.06,0,0,1,.035.109l-.36.266.135.427a.06.06,0,0,1-.093.067l-.364-.26-.364.26a.06.06,0,0,1-.093-.067l.135-.427-.36-.266a.06.06,0,0,1,.035-.109l.447,0,.142-.424A.06.06,0,0,1,38.809,215Z" transform="translate(-36.322 -207.212)"/><path class="a" d="M62.6,108.01l.142.424.447,0a.06.06,0,0,1,.035.109l-.36.266.135.427a.06.06,0,0,1-.093.067l-.364-.26-.364.26a.06.06,0,0,1-.093-.067l.135-.427-.36-.266a.06.06,0,0,1,.035-.109l.447,0,.142-.424A.06.06,0,0,1,62.6,108.01Z" transform="translate(-58.392 -107.969)"/><path class="a" d="M62.6,138.665l.142.424.447,0a.06.06,0,0,1,.035.109l-.36.266.135.427a.06.06,0,0,1-.093.067l-.364-.26-.364.26a.06.06,0,0,1-.093-.067l.135-.427-.36-.266a.06.06,0,0,1,.035-.109l.447,0,.142-.424A.06.06,0,0,1,62.6,138.665Z" transform="translate(-58.392 -136.403)"/><path class="a" d="M62.6,169.319l.142.424.447,0a.06.06,0,0,1,.035.109l-.36.266.135.427a.06.06,0,0,1-.093.067l-.364-.26-.364.26a.06.06,0,0,1-.093-.067l.135-.427-.36-.266a.06.06,0,0,1,.035-.109l.447,0,.142-.424A.06.06,0,0,1,62.6,169.319Z" transform="translate(-58.392 -164.837)"/><path class="a" d="M62.6,199.973l.142.424.447,0a.06.06,0,0,1,.035.109l-.36.266L63,201.2a.06.06,0,0,1-.093.067l-.364-.26-.364.26a.06.06,0,0,1-.093-.067l.135-.427-.36-.266a.06.06,0,0,1,.035-.109l.447,0,.142-.424A.06.06,0,0,1,62.6,199.973Z" transform="translate(-58.392 -193.271)"/><path class="a" d="M62.6,230.626l.142.424.447,0a.06.06,0,0,1,.035.109l-.36.266.135.427a.06.06,0,0,1-.093.067l-.364-.26-.364.26a.06.06,0,0,1-.093-.067l.135-.427-.36-.266a.06.06,0,0,1,.035-.109l.447,0,.142-.424A.06.06,0,0,1,62.6,230.626Z" transform="translate(-58.392 -221.704)"/><path class="a" d="M86.4,123.04l.142.424.447,0a.06.06,0,0,1,.035.109l-.36.266.135.427a.06.06,0,0,1-.093.067l-.364-.26-.364.26a.06.06,0,0,1-.093-.067l.135-.427-.36-.266a.06.06,0,0,1,.035-.109l.447,0,.142-.424A.06.06,0,0,1,86.4,123.04Z" transform="translate(-80.463 -121.91)"/><path class="a" d="M86.4,153.694l.142.424.447,0a.06.06,0,0,1,.035.109l-.36.266.135.427a.06.06,0,0,1-.093.067l-.364-.26-.364.26a.06.06,0,0,1-.093-.067l.135-.427-.36-.266a.06.06,0,0,1,.035-.109l.447,0,.142-.424A.06.06,0,0,1,86.4,153.694Z" transform="translate(-80.463 -150.344)"/><path class="a" d="M86.4,184.348l.142.424.447,0a.06.06,0,0,1,.035.109l-.36.266.135.427a.06.06,0,0,1-.093.067l-.364-.26-.364.26a.06.06,0,0,1-.093-.067l.135-.427-.36-.266a.06.06,0,0,1,.035-.109l.447,0,.142-.424A.06.06,0,0,1,86.4,184.348Z" transform="translate(-80.463 -178.778)"/><path class="a" d="M86.4,215l.142.424.447,0a.06.06,0,0,1,.035.109l-.36.266.135.427a.06.06,0,0,1-.093.067l-.364-.26-.364.26a.06.06,0,0,1-.093-.067l.135-.427-.36-.266a.06.06,0,0,1,.035-.109l.447,0,.142-.424A.06.06,0,0,1,86.4,215Z" transform="translate(-80.463 -207.212)"/><path class="a" d="M110.188,108.01l.142.424.447,0a.06.06,0,0,1,.035.109l-.36.266.135.427a.06.06,0,0,1-.093.067l-.364-.26-.364.26a.06.06,0,0,1-.093-.067l.135-.427-.36-.266a.06.06,0,0,1,.035-.109l.447,0,.142-.424A.06.06,0,0,1,110.188,108.01Z" transform="translate(-102.532 -107.969)"/><path class="a" d="M110.188,138.665l.142.424.447,0a.06.06,0,0,1,.035.109l-.36.266.135.427a.06.06,0,0,1-.093.067l-.364-.26-.364.26a.06.06,0,0,1-.093-.067l.135-.427-.36-.266a.06.06,0,0,1,.035-.109l.447,0,.142-.424A.06.06,0,0,1,110.188,138.665Z" transform="translate(-102.532 -136.403)"/><path class="a" d="M110.188,169.319l.142.424.447,0a.06.06,0,0,1,.035.109l-.36.266.135.427a.06.06,0,0,1-.093.067l-.364-.26-.364.26a.06.06,0,0,1-.093-.067l.135-.427-.36-.266a.06.06,0,0,1,.035-.109l.447,0,.142-.424A.06.06,0,0,1,110.188,169.319Z" transform="translate(-102.532 -164.837)"/><path class="a" d="M110.188,199.973l.142.424.447,0a.06.06,0,0,1,.035.109l-.36.266.135.427a.06.06,0,0,1-.093.067l-.364-.26-.364.26a.06.06,0,0,1-.093-.067l.135-.427-.36-.266a.06.06,0,0,1,.035-.109l.447,0,.142-.424A.06.06,0,0,1,110.188,199.973Z" transform="translate(-102.532 -193.271)"/><path class="a" d="M110.188,230.626l.142.424.447,0a.06.06,0,0,1,.035.109l-.36.266.135.427a.06.06,0,0,1-.093.067l-.364-.26-.364.26a.06.06,0,0,1-.093-.067l.135-.427-.36-.266a.06.06,0,0,1,.035-.109l.447,0,.142-.424A.06.06,0,0,1,110.188,230.626Z" transform="translate(-102.532 -221.704)"/><path class="a" d="M133.982,123.04l.142.424.447,0a.06.06,0,0,1,.035.109l-.36.266.135.427a.06.06,0,0,1-.093.067l-.364-.26-.364.26a.06.06,0,0,1-.093-.067l.135-.427-.36-.266a.06.06,0,0,1,.035-.109l.447,0,.142-.424A.06.06,0,0,1,133.982,123.04Z" transform="translate(-124.602 -121.91)"/><path class="a" d="M133.982,153.694l.142.424.447,0a.06.06,0,0,1,.035.109l-.36.266.135.427a.06.06,0,0,1-.093.067l-.364-.26-.364.26a.06.06,0,0,1-.093-.067l.135-.427-.36-.266a.06.06,0,0,1,.035-.109l.447,0,.142-.424A.06.06,0,0,1,133.982,153.694Z" transform="translate(-124.602 -150.344)"/><path class="a" d="M133.982,184.348l.142.424.447,0a.06.06,0,0,1,.035.109l-.36.266.135.427a.06.06,0,0,1-.093.067l-.364-.26-.364.26a.06.06,0,0,1-.093-.067l.135-.427-.36-.266a.06.06,0,0,1,.035-.109l.447,0,.142-.424A.06.06,0,0,1,133.982,184.348Z" transform="translate(-124.602 -178.778)"/><path class="a" d="M133.982,215l.142.424.447,0a.06.06,0,0,1,.035.109l-.36.266.135.427a.06.06,0,0,1-.093.067l-.364-.26-.364.26a.06.06,0,0,1-.093-.067l.135-.427-.36-.266a.06.06,0,0,1,.035-.109l.447,0,.142-.424A.06.06,0,0,1,133.982,215Z" transform="translate(-124.602 -207.212)"/><path class="a" d="M157.776,108.01l.142.424.447,0a.06.06,0,0,1,.035.109l-.36.266.135.427a.06.06,0,0,1-.093.067l-.364-.26-.364.26a.06.06,0,0,1-.093-.067l.135-.427-.36-.266a.06.06,0,0,1,.035-.109l.447,0,.142-.424A.06.06,0,0,1,157.776,108.01Z" transform="translate(-146.673 -107.969)"/><path class="a" d="M157.776,138.665l.142.424.447,0a.06.06,0,0,1,.035.109l-.36.266.135.427a.06.06,0,0,1-.093.067l-.364-.26-.364.26a.06.06,0,0,1-.093-.067l.135-.427-.36-.266a.06.06,0,0,1,.035-.109l.447,0,.142-.424A.06.06,0,0,1,157.776,138.665Z" transform="translate(-146.673 -136.403)"/><path class="a" d="M157.776,169.319l.142.424.447,0a.06.06,0,0,1,.035.109l-.36.266.135.427a.06.06,0,0,1-.093.067l-.364-.26-.364.26a.06.06,0,0,1-.093-.067l.135-.427-.36-.266a.06.06,0,0,1,.035-.109l.447,0,.142-.424A.06.06,0,0,1,157.776,169.319Z" transform="translate(-146.673 -164.837)"/><path class="a" d="M157.776,199.973l.142.424.447,0a.06.06,0,0,1,.035.109l-.36.266.135.427a.06.06,0,0,1-.093.067l-.364-.26-.364.26a.06.06,0,0,1-.093-.067l.135-.427-.36-.266a.06.06,0,0,1,.035-.109l.447,0,.142-.424A.06.06,0,0,1,157.776,199.973Z" transform="translate(-146.673 -193.271)"/><path class="a" d="M157.776,230.626l.142.424.447,0a.06.06,0,0,1,.035.109l-.36.266.135.427a.06.06,0,0,1-.093.067l-.364-.26-.364.26a.06.06,0,0,1-.093-.067l.135-.427-.36-.266a.06.06,0,0,1,.035-.109l.447,0,.142-.424A.06.06,0,0,1,157.776,230.626Z" transform="translate(-146.673 -221.704)"/><path class="a" d="M181.569,123.04l.142.424.447,0a.06.06,0,0,1,.035.109l-.36.266.135.427a.06.06,0,0,1-.093.067l-.364-.26-.364.26a.06.06,0,0,1-.093-.067l.135-.427-.36-.266a.06.06,0,0,1,.035-.109l.447,0,.142-.424A.06.06,0,0,1,181.569,123.04Z" transform="translate(-168.743 -121.91)"/><path class="a" d="M181.569,153.694l.142.424.447,0a.06.06,0,0,1,.035.109l-.36.266.135.427a.06.06,0,0,1-.093.067l-.364-.26-.364.26a.06.06,0,0,1-.093-.067l.135-.427-.36-.266a.06.06,0,0,1,.035-.109l.447,0,.142-.424A.06.06,0,0,1,181.569,153.694Z" transform="translate(-168.743 -150.344)"/><path class="a" d="M181.569,184.348l.142.424.447,0a.06.06,0,0,1,.035.109l-.36.266.135.427a.06.06,0,0,1-.093.067l-.364-.26-.364.26a.06.06,0,0,1-.093-.067l.135-.427-.36-.266a.06.06,0,0,1,.035-.109l.447,0,.142-.424A.06.06,0,0,1,181.569,184.348Z" transform="translate(-168.743 -178.778)"/><path class="a" d="M181.569,215l.142.424.447,0a.06.06,0,0,1,.035.109l-.36.266.135.427a.06.06,0,0,1-.093.067l-.364-.26-.364.26a.06.06,0,0,1-.093-.067l.135-.427-.36-.266a.06.06,0,0,1,.035-.109l.447,0,.142-.424A.06.06,0,0,1,181.569,215Z" transform="translate(-168.743 -207.212)"/><path class="a" d="M205.363,108.01l.142.424.447,0a.06.06,0,0,1,.035.109l-.36.266.135.427a.06.06,0,0,1-.093.067l-.364-.26-.364.26a.06.06,0,0,1-.093-.067l.135-.427-.36-.266a.06.06,0,0,1,.035-.109l.447,0,.142-.424A.06.06,0,0,1,205.363,108.01Z" transform="translate(-190.813 -107.969)"/><path class="a" d="M205.363,138.665l.142.424.447,0a.06.06,0,0,1,.035.109l-.36.266.135.427a.06.06,0,0,1-.093.067l-.364-.26-.364.26a.06.06,0,0,1-.093-.067l.135-.427-.36-.266a.06.06,0,0,1,.035-.109l.447,0,.142-.424A.06.06,0,0,1,205.363,138.665Z" transform="translate(-190.813 -136.403)"/><path class="a" d="M205.363,169.319l.142.424.447,0a.06.06,0,0,1,.035.109l-.36.266.135.427a.06.06,0,0,1-.093.067l-.364-.26-.364.26a.06.06,0,0,1-.093-.067l.135-.427-.36-.266a.06.06,0,0,1,.035-.109l.447,0,.142-.424A.06.06,0,0,1,205.363,169.319Z" transform="translate(-190.813 -164.837)"/><path class="a" d="M205.363,199.973l.142.424.447,0a.06.06,0,0,1,.035.109l-.36.266.135.427a.06.06,0,0,1-.093.067l-.364-.26-.364.26a.06.06,0,0,1-.093-.067l.135-.427-.36-.266a.06.06,0,0,1,.035-.109l.447,0,.142-.424A.06.06,0,0,1,205.363,199.973Z" transform="translate(-190.813 -193.271)"/><path class="a" d="M205.363,230.626l.142.424.447,0a.06.06,0,0,1,.035.109l-.36.266.135.427a.06.06,0,0,1-.093.067l-.364-.26-.364.26a.06.06,0,0,1-.093-.067l.135-.427-.36-.266a.06.06,0,0,1,.035-.109l.447,0,.142-.424A.06.06,0,0,1,205.363,230.626Z" transform="translate(-190.813 -221.704)"/></g></g></svg>