<?xml version="1.0" encoding="utf-8"?>
<!-- Generator: Adobe Illustrator 25.4.1, SVG Export Plug-In . SVG Version: 6.00 Build 0)  -->
<svg version="1.1" id="Layer_1" xmlns="http://www.w3.org/2000/svg" xmlns:xlink="http://www.w3.org/1999/xlink" x="0px" y="0px"
	 viewBox="0 0 226 108" style="enable-background:new 0 0 226 108;" xml:space="preserve">
<style type="text/css">
	.st0{fill:#FFFFFF;}
	.st1{fill:#121E42;}
</style>
<g id="Layer_1_00000166645237975652970310000003641911021954789304_">
	<g id="Layer_1_00000089545068236943649950000000872409915276141969_">
		<path class="st0" d="M57.2,30.2c11.9,0,23.8,0,35.8,0c0,2.7,0,5.3,0,8c-4.3,0-8.7,0-13,0c0,13.6,0,27.2,0,40.8c-3.2,0-6.5,0-9.8,0
			c0-13.6,0-27.2,0-40.7c-4.3,0-8.7,0-13,0C57.2,35.6,57.2,32.9,57.2,30.2z"/>
		<path class="st0" d="M106.5,32.4c1.9-3.9,8.3-4,10.2-0.1c5.4,10.8,10.9,21.6,16.2,32.4c-4.5-1.3-8.9-2.7-13.3-4.1
			c-2.1-4.6-4.3-9.2-6.5-13.8c-0.4-1.3-2.6-1.4-2.9,0.1c-2.3,4.5-4.4,9.1-6.5,13.7c-4.2,0.9-8.2,3.5-12.5,3.2c0-0.4,0.1-1,0.2-1.4
			C96.4,52.6,101.3,42.4,106.5,32.4z"/>
		<path class="st0" d="M93.2,65c5.9-1.9,11.9-3.8,17.9-5.5c6.3,1.4,12.3,3.7,18.5,5.5c-6.1,2.3-12.2,4.5-18.4,6.6
			C105.2,69.3,99.2,67.3,93.2,65z"/>
		<path class="st0" d="M90.2,65c3.4,0.5,6.6,2.3,9.9,3.4c-1.8,3.5-3.4,7.1-5.1,10.6c-3.9,0-7.9,0-11.8,0
			C85.5,74.4,87.7,69.6,90.2,65z"/>
		<path class="st0" d="M111.6,72.4c3.6-0.7,7-2.4,10.4-3.6c0,2.6,0,5.2-0.2,7.8c-6.4,3.2-14.1,3.2-20.3-0.2c0-2.5,0-5,0-7.5
			C104.9,70,108.1,71.5,111.6,72.4z"/>
		<path class="st0" d="M142.3,76.2C142.8,76.8,142.8,76.8,142.3,76.2z"/>
		<path class="st1" d="M208.7,24c0.2-7.2-6.5-13.7-13.7-13.5c-47,0-94,0-141,0c-0.6,0.1-1.9,0.1-2.5,0.2c-3,0.4-5.5,2.2-7.8,4
			C34.5,21.9,25.3,29,16.1,36.2c-3.3,2.5-5.2,6.6-5.1,10.8c0,6.4-0.1,12.7,0,19.1c0.1,4.1,2.1,8.1,5.4,10.5
			c8.2,6.2,16.3,12.4,24.5,18.6C44,97.7,48,98.7,52,98.5c47.4,0,94.7,0,142.1,0c7.5,0.3,14.8-5.8,14.7-13.6
			C208.8,64.6,208.8,44.3,208.7,24z M80,79c-3.2,0-6.5,0-9.8,0c0-13.6,0-27.2,0-40.7c-4.3,0-8.7,0-13,0c0-2.7,0-5.3,0-8
			c11.9,0,23.8,0,35.8,0c0,2.7,0,5.3,0,8c-4.3,0-8.7,0-13,0C80,51.8,80,65.4,80,79z"/>
	</g>
	<g id="Layer_3">
		<path class="st0" d="M185.2,51.8h-26.5c0,2.6,0,5.2,0,7.7c5.6,0.1,11.2,0,16.8,0.1c-1.1,4.1-3.6,7.9-7.6,9.6
			c-5.6,2.2-12.7,1.3-16.9-3.1c-5.4-5.9-5.6-15.7-0.9-22.1c5.4-7.2,18.2-7.1,22.7,1c3.8,0,7.6,0,11.4,0c-1.3-3.5-3-6.9-5.8-9.4
			c-10.1-9-27.6-8-36.3,2.5c-4.7,5.7-6.5,13.5-5.4,20.7c0.5,3.3,1.7,6.4,3.4,9.2c2.3,3.6,5.7,6.5,9.4,8.5c4.1,2.2,8.7,2.8,13.3,2.7
			c9-0.2,17.5-6.1,20.9-14.4C185.9,60.8,185.1,56.1,185.2,51.8z"/>
	</g>
	<g id="Layer_2_00000035495160103138564860000007500503905993721241_">
		<g id="_x23_141e42ff">
			<path class="st0" d="M109,29.1c1.5-0.7,3.3-0.7,4.8,0c1.3,0.5,2.3,1.6,2.9,2.8c5.4,10.8,10.9,21.7,16.3,32.5
				c-4.3-1.3-8.6-2.7-12.8-4c-0.2-0.1-0.4-0.1-0.5-0.3c-2.2-4.7-4.4-9.3-6.6-14c-0.3-0.6-0.9-1-1.6-1s-1.4,0.4-1.6,1
				c-2.2,4.7-4.4,9.4-6.6,14.1c-0.1,0.2-0.3,0.2-0.5,0.3c-3.6,1.1-7.3,2.3-10.9,3.4c-0.6,0.2-1.2,0.4-1.8,0.5c0.4-1,1-1.9,1.4-2.9
				c4.8-9.5,9.5-19.1,14.3-28.6c0.3-0.6,0.6-1.3,1-1.8C107.3,30.2,108.1,29.5,109,29.1z"/>
			<path class="st0" d="M110.5,59.4c0.3-0.1,0.6-0.3,1-0.2c6,1.9,12,3.7,18,5.6c0,0-0.1,0.1-0.2,0.1c-5.8,2.1-11.6,4.2-17.4,6.3
				c-0.3,0.1-0.5,0.3-0.8,0.1c-5.7-2-11.3-4.1-17-6.1c-0.3-0.1-0.7-0.2-1-0.4c3-1,5.9-1.8,8.9-2.8C104.8,61.1,107.6,60.3,110.5,59.4
				z"/>
			<path class="st0" d="M89.8,64.8c1.1,0.3,2.2,0.8,3.3,1.2c2.1,0.8,4.2,1.5,6.3,2.3c-1.7,3.6-3.4,7.1-5,10.7c-3.9,0-7.8,0-11.6,0
				c0.7-1.4,1.4-2.8,2.1-4.2C86.5,71.4,88.1,68.1,89.8,64.8z"/>
			<path class="st0" d="M131.5,65.5c0.6-0.2,1.1-0.4,1.7-0.6c1.8,3.6,3.6,7.2,5.4,10.7c0.5,1.1,1.1,2.2,1.7,3.3c-3.9,0-7.8,0-11.6,0
				c-1.7-3.5-3.4-7.1-5-10.6C126.2,67.4,128.9,66.4,131.5,65.5z"/>
			<path class="st0" d="M101.3,69c3.2,1.1,6.3,2.3,9.5,3.4c0.3,0.1,0.5,0.2,0.8,0.3c0.2,0,0.4-0.1,0.6-0.2c3-1.1,6-2.2,9-3.3
				c0.3-0.1,0.6-0.2,0.8-0.3c0,2.2,0,4.3,0,6.5c0,0.3,0,0.5,0,0.8c-2.1,1.2-4.5,2.1-6.9,2.5c-2.8,0.5-5.7,0.4-8.5-0.3
				c-1.9-0.5-3.7-1.2-5.4-2.1C101.3,73.9,101.3,71.4,101.3,69z"/>
		</g>
	</g>
</g>
<g id="Layer_2_00000010991022910775048140000000116649810034582432_">
	<circle class="st0" cx="27.2" cy="55.3" r="5.7"/>
</g>
</svg>
