<svg width="84" height="71" viewBox="0 0 84 71" fill="none" xmlns="http://www.w3.org/2000/svg">
<path d="M60.6528 61.099L62.1397 66.1049C62.1397 66.1049 63.2276 67.3957 63.7172 68.6166H55.2856L56.7362 66.541L55.5939 61.0815H60.6528V61.099Z" fill="#9BB9B9"/>
<path d="M56.7362 66.5584L55.2856 68.634H63.7172C63.2276 67.413 62.1397 66.1223 62.1397 66.1223C58.0418 65.006 56.7362 66.5584 56.7362 66.5584Z" fill="#233332"/>
<path d="M55.2856 68.6336C55.2856 68.6336 56.5549 66.4707 59.7462 66.8545C62.9557 67.2382 63.7172 68.6336 63.7172 68.6336H55.2856Z" fill="#9BB9B9"/>
<path d="M57.1533 63.6455L57.4981 66.07" stroke="#F9F9F9" stroke-miterlimit="10" stroke-linecap="round" stroke-linejoin="round"/>
<path d="M58.8398 63.6455L59.2028 65.7211" stroke="#F9F9F9" stroke-miterlimit="10" stroke-linecap="round" stroke-linejoin="round"/>
<path d="M60.5078 63.6455L60.8526 65.8258" stroke="#F9F9F9" stroke-miterlimit="10" stroke-linecap="round" stroke-linejoin="round"/>
<path d="M42.629 60.3311L42.9916 65.8254C42.9916 65.8254 39.6734 67.2557 39.1294 68.5813H48.1775V60.3311H42.629Z" fill="#9BB9B9"/>
<path d="M48.1601 66.6628C47.1809 67.4303 46.0748 67.064 45.3495 66.8721C44.86 66.75 43.7902 66.1221 42.9742 65.843C42.7022 65.9651 39.656 67.3082 39.1301 68.5989H48.1782V66.6628H48.1601Z" fill="#233332"/>
<path d="M42.376 68.058C42.2853 67.4999 41.4693 67.0464 40.9979 66.8545C40.1819 67.3603 39.3478 67.9882 39.094 68.5987H48.1421V68.0755H42.376V68.058Z" fill="#9BB9B9"/>
<path d="M43.6455 63.645V66.1742" stroke="#F9F9F9" stroke-miterlimit="10" stroke-linecap="round" stroke-linejoin="round"/>
<path d="M45.4226 63.645V66.8893" stroke="#F9F9F9" stroke-miterlimit="10" stroke-linecap="round" stroke-linejoin="round"/>
<path d="M47.1627 63.645L46.9817 67.116" stroke="#F9F9F9" stroke-miterlimit="10" stroke-linecap="round" stroke-linejoin="round"/>
<path d="M42.4661 32.7031C42.4661 32.7031 40.671 48.2791 41.215 53.163C41.7589 58.0468 41.9584 63.6284 41.9584 63.6284H49.4471C49.4471 63.6284 49.991 57.6456 49.0844 53.0234L49.4471 45.8895L54.8868 63.6284H62.1942C62.1942 63.6284 62.9557 57.5236 59.7826 52.2909C58.4226 50.0408 58.9303 40.2905 55.1951 32.7031H42.4661Z" fill="#4D60A4"/>
<path d="M43.6445 51.4358C43.6445 49.6392 42.6291 48.1741 41.378 48.1741C41.3054 48.1741 41.251 48.1741 41.1785 48.1915C41.106 50.2323 41.0878 52.0114 41.2329 53.18C41.2873 53.6858 41.3417 54.1917 41.3961 54.6975C42.6291 54.6801 43.6445 53.2323 43.6445 51.4358Z" fill="#3C4A77"/>
<path d="M49.4473 45.9062C49.4473 45.9062 45.2769 42.4003 46.8181 32.7024" stroke="#3C4A77" stroke-miterlimit="10" stroke-linecap="round" stroke-linejoin="round"/>
<path d="M55.1878 54.6452C56.2601 54.4489 56.8563 52.9089 56.5194 51.2055C56.1825 49.502 55.0401 48.2802 53.9678 48.4765C52.8954 48.6727 52.2992 50.2127 52.6361 51.9161C52.973 53.6196 54.1154 54.8414 55.1878 54.6452Z" fill="#3C4A77"/>
<path d="M45.4217 32.7024C45.4217 32.7024 43.8805 39.8363 46.8542 40.5689" stroke="#3C4A77" stroke-miterlimit="10" stroke-linecap="round" stroke-linejoin="round"/>
<path d="M52.8018 32.7024L54.6513 39.627L57.7338 40.5863" stroke="#3C4A77" stroke-miterlimit="10" stroke-linecap="round" stroke-linejoin="round"/>
<path d="M60.852 63.6452C60.852 63.6452 60.0904 56.3369 58.5129 52.3949C56.9354 48.4355 56.4458 40.1853 56.4458 40.1853" stroke="#3C4A77" stroke-miterlimit="10" stroke-linecap="round" stroke-linejoin="round"/>
<path d="M47.9603 63.6452L47.0355 53.2844C46.9993 52.9182 46.9993 52.5693 47.0537 52.203L47.9784 43.8481" stroke="#3C4A77" stroke-miterlimit="10" stroke-linecap="round" stroke-linejoin="round"/>
<path d="M43.119 5.71944C42.8651 5.70199 42.6657 5.84153 42.4481 5.80665C42.6838 5.4578 42.9921 5.07407 43.1008 4.63801C43.1734 4.28917 43.1734 3.88799 43.1008 3.5217C43.0827 3.41705 42.9558 3.03332 42.7745 3.12053C42.6294 3.1903 42.6294 3.7659 42.6294 3.90543C42.575 3.6438 42.575 3.36472 42.4662 3.10309C42.4118 2.96355 42.303 2.7368 42.158 2.66703C41.8497 2.52749 41.9948 3.22518 42.031 3.36472C41.9948 3.24263 41.7772 2.68447 41.5777 2.99843C41.4145 3.27751 41.6684 3.73101 41.5959 4.01009C41.5233 3.81822 41.3239 3.17286 41.0156 3.20774C40.798 3.22518 40.9431 3.62636 40.9794 3.7659C41.0338 3.94032 41.1063 4.18451 40.9612 4.32405C40.8887 4.39382 40.798 4.44615 40.7255 4.51592C40.6348 4.60313 40.5804 4.70778 40.5079 4.81244C40.3266 5.07407 40.2178 5.31826 40.1997 5.63222C39.7101 5.80665 36.1924 7.21948 34.7599 11.144C33.2368 15.365 33.5088 16.6034 35.449 17.9116C36.3193 18.5047 37.9875 19.8128 39.5469 21.0687C40.0546 19.2896 40.7799 16.8128 41.1788 15.3825L39.0392 14.1964C39.0392 14.1964 40.3629 8.44044 41.4689 6.83574C41.6865 6.74853 41.9041 6.74853 42.1398 6.66132C42.4662 6.55667 42.6838 6.22526 43.0283 6.15549C43.1552 6.13805 43.6992 6.22526 43.7174 6.05084C43.7536 5.84153 43.264 5.73688 43.119 5.71944Z" fill="#E6817D"/>
<path d="M39.0213 14.2139C39.0213 14.2139 36.3015 15.4348 34.5063 17.1616C34.7602 17.4233 35.0685 17.6849 35.4492 17.9291C36.3196 18.5221 37.9878 19.8303 39.5472 21.0861C40.0549 19.307 40.7802 16.8302 41.1791 15.3999L39.0213 14.2139Z" fill="#AA3F37"/>
<path d="M40.5981 6.01592C40.5981 6.01592 40.9064 4.98682 42.4477 5.78917" stroke="#D85145" stroke-miterlimit="10" stroke-linecap="round" stroke-linejoin="round"/>
<path d="M40.9614 4.34157C40.9614 4.34157 41.7411 4.23692 42.3214 4.67298" stroke="#D85145" stroke-miterlimit="10" stroke-linecap="round" stroke-linejoin="round"/>
<path d="M57.2987 37.203C57.2987 37.203 56.9541 36.2611 56.5008 35.0227L55.9387 37.36C56.9723 36.8018 57.2987 37.203 57.2987 37.203Z" fill="#00918C"/>
<path d="M56.0656 33.8366C55.3221 31.7784 54.5243 29.4586 54.5243 29.1097C54.5243 28.4469 54.6694 27.4876 54.6694 27.4876L56.3738 31.5517L62.0674 29.6679C61.5597 28.4295 60.6712 26.2841 59.6376 24.2433C58.2233 21.47 56.1562 19.063 52.2396 18.5397L51.0247 18.2257L51.1698 17.4234L46.6367 17.0745L46.5098 17.9467L39.003 14.2314C36.4463 16.9524 36.8996 18.2083 35.5759 19.7432C37.4798 21.2781 41.9948 23.5805 41.9948 23.5805C41.9948 23.5805 41.6684 28.4818 41.6684 31.9877C41.6684 34.0459 40.7255 35.825 40.7255 35.825C40.7255 35.825 43.5542 37.8832 46.2197 38.3019L47.9604 36.1739L48.595 39.2263C48.595 39.2263 52.2215 40.4124 54.4336 38.4414C54.7056 38.2146 54.9414 38.0053 55.1589 37.8484C55.4309 37.6565 55.6666 37.4995 55.8842 37.3774C56.9359 36.8193 57.2442 37.2204 57.2442 37.2204C57.2442 37.2204 56.8996 36.2785 56.4463 35.0401C56.3557 34.6564 56.2106 34.2378 56.0656 33.8366Z" fill="#00918C"/>
<path d="M46.6548 17.0571C46.6548 17.0571 47.5795 17.9118 48.7219 18.0862C48.7219 18.0862 48.9939 18.2258 51.1879 17.406L46.6548 17.0571Z" fill="#3C4A77"/>
<path d="M47.9965 36.1567C47.9965 36.1567 46.6003 27.8367 47.9965 21.8365C47.9965 21.8365 48.613 19.4469 48.6674 18.0864" stroke="#007F7A" stroke-miterlimit="10" stroke-linecap="round" stroke-linejoin="round"/>
<path d="M42.0132 23.5456C42.0132 23.5456 42.3214 20.6676 43.5 18.8362" stroke="#007F7A" stroke-miterlimit="10" stroke-linecap="round" stroke-linejoin="round"/>
<path d="M54.6694 27.4704L55.2139 23.075" stroke="#007F7A" stroke-miterlimit="10" stroke-linecap="round" stroke-linejoin="round"/>
<path d="M37.3528 20.9294L40.4534 14.999" stroke="#007F7A" stroke-miterlimit="10" stroke-linecap="round" stroke-linejoin="round"/>
<path d="M55.7029 29.8947L61.1607 27.4702" stroke="#007F7A" stroke-miterlimit="10" stroke-linecap="round" stroke-linejoin="round"/>
<path d="M53.485 23.4184L49.6328 23.1509L49.561 24.1077L53.4132 24.3752L53.485 23.4184Z" stroke="#007F7A" stroke-miterlimit="10" stroke-linecap="round" stroke-linejoin="round"/>
<path d="M46.5278 17.9292L47.3801 19.1676L48.6675 18.2083L49.5922 19.4292L51.0609 18.2257" stroke="#007F7A" stroke-miterlimit="10" stroke-linecap="round" stroke-linejoin="round"/>
<path d="M62.1763 30.1386L61.9406 29.6851L57.1717 31.2723L57.3349 31.5339L55.6668 38.4585C55.4673 38.8248 55.014 38.9295 54.6151 39.0167C54.3975 39.0516 54.2162 39.1039 54.0711 39.2783C53.8173 39.5225 53.8535 39.8714 53.6541 40.1505C53.5634 40.29 53.2551 40.6563 53.6903 40.5516C53.9079 40.4993 54.1255 40.2377 54.2706 40.0807C54.5607 39.7667 54.8508 39.7144 55.2497 39.7842C55.6486 39.8539 56.0657 39.976 56.4646 40.0632C56.7366 40.133 56.9904 40.2725 57.2624 40.3249C57.4075 40.0109 57.5163 39.697 57.5888 39.3655C57.7701 39.2435 61.3422 36.9759 62.412 31.6735C62.5208 31.1677 62.4301 30.6095 62.1763 30.1386Z" fill="#E6817D"/>
<path d="M62.1764 30.1386L61.9407 29.6851L57.1719 31.2723L57.3351 31.5165L62.3577 30.5572C62.3215 30.4176 62.249 30.2781 62.1764 30.1386Z" fill="#AA3F37"/>
<path d="M47.8159 15.1384L47.4895 17.6501C47.4895 17.6501 48.0153 17.999 48.6681 18.0862C49.0308 18.1385 49.1577 18.1036 49.8286 17.8769V15.3303L47.8159 15.1384Z" fill="#E6817D"/>
<path d="M47.8157 15.1384L47.6707 16.2373C48.1058 17.1443 49.8284 17.1966 49.8284 17.1966V15.3303L47.8157 15.1384Z" fill="#AA3F37"/>
<path d="M47.7973 13.4462C47.7973 13.4462 47.0538 12.0508 46.6368 12.8357C46.2741 13.4811 46.9813 14.1962 47.7247 14.0392L47.7973 13.4462Z" fill="#AA3F37"/>
<path d="M49.9008 13.5686C49.9008 13.5686 50.9163 12.3477 51.1701 13.2023C51.3877 13.9 50.5355 14.4582 49.8464 14.1617L49.9008 13.5686Z" fill="#AA3F37"/>
<path d="M47.2534 13.7427C46.9814 13.5509 46.8907 13.1497 46.8545 12.8532C46.8364 12.7136 46.8001 12.5566 46.8001 12.4171C46.8001 12.295 46.9089 12.138 46.9089 12.0334C46.5281 11.981 46.655 11.4403 46.782 11.231C47.0539 10.8299 47.4166 10.5508 47.9243 10.4636C48.1963 10.4112 48.4683 10.481 48.7403 10.5159C48.6496 10.4461 48.5952 10.3589 48.5952 10.2368C48.6677 10.481 49.3024 10.4461 49.5018 10.481C49.9189 10.5508 50.1365 10.7601 50.3178 11.0915C50.5535 10.9345 51.0431 11.1438 51.1337 11.3531C51.2788 11.6845 51.1519 12.0683 51.0793 12.4171C50.9887 12.8183 51.0612 13.3764 50.8074 13.7253C50.5172 14.1265 49.6469 13.9346 49.248 13.8823C48.7765 13.8299 48.2869 13.7078 47.8155 13.7427C47.6704 13.7427 47.4166 13.7253 47.2534 13.7427Z" fill="#233332"/>
<path d="M50.6442 12.5743C50.6442 12.3824 50.481 12.2429 50.2815 12.2603C50.1183 12.2778 49.937 12.3127 49.8101 12.3475C49.7194 12.365 49.5925 12.4522 49.5199 12.4696C49.393 12.4871 49.1936 12.3475 49.0666 12.3127C49.1029 12.3475 49.121 12.4173 49.1392 12.4522C48.6315 12.3301 48.0875 12.208 47.5616 12.1034C47.3803 12.0685 47.199 12.1906 47.1809 12.3824C47.1446 12.7487 47.1265 13.272 47.1265 13.3418C47.2715 15.522 47.3441 15.8011 48.704 16.0104C50.0639 16.2197 50.4266 14.7023 50.4991 14.0394C50.5172 13.8999 50.5172 13.708 50.5716 13.4464C50.5898 13.3941 50.5898 13.3243 50.5898 13.272C50.6079 13.115 50.6442 12.801 50.6442 12.5743Z" fill="#E6817D"/>
<path d="M47.1451 13.6035C47.1995 13.6558 47.1632 13.9349 47.1451 14.0221C47.1088 14.214 47.0363 14.3884 46.9638 14.5628C46.8006 14.9815 46.7824 15.435 47.0725 15.8012C47.4896 16.3594 48.4687 16.4815 49.1215 16.3594C49.4479 16.2896 49.8287 16.2024 50.0644 15.9757C50.282 15.7664 50.3908 15.4698 50.4633 15.1908C50.5721 14.7722 50.6446 14.2314 50.5358 13.8128C50.4089 14.057 50.3545 14.6501 49.9919 14.7198C49.6473 14.7896 49.6111 14.4582 49.3935 14.3187C49.1578 14.1617 48.7407 14.1442 48.4687 14.1442C48.2511 14.1442 48.0517 14.1966 47.8704 14.3187C47.7616 14.3884 47.6709 14.5105 47.5259 14.4407C47.272 14.3361 47.2901 13.8477 47.1451 13.6035Z" fill="#233332"/>
<path d="M48.4509 13.359C48.4509 13.4462 48.3783 13.5334 48.2694 13.5334C48.1605 13.5334 48.0879 13.4636 48.0879 13.359C48.0879 13.2718 48.1605 13.1846 48.2694 13.1846C48.3783 13.1846 48.4509 13.2543 48.4509 13.359Z" fill="#233332"/>
<path d="M49.611 13.4464C49.611 13.5336 49.5384 13.6208 49.4295 13.6208C49.3388 13.6208 49.248 13.551 49.248 13.4464C49.248 13.3417 49.3206 13.272 49.4295 13.272C49.5384 13.2894 49.611 13.3592 49.611 13.4464Z" fill="#233332"/>
<path d="M48.6324 13.1149C48.6868 13.2195 48.6505 13.3416 48.6505 13.4463C48.6143 13.673 48.5599 13.8823 48.5055 14.1091C48.4692 14.266 48.3423 14.5277 48.4148 14.6847C48.433 14.7544 48.5236 14.8068 48.5962 14.8068C48.7775 14.8242 48.8863 14.6323 48.9407 14.4928L49.0132 14.3358C49.0857 14.1788 49.1039 13.987 49.0676 13.8125L48.9407 13.0974H48.6324V13.1149Z" fill="#E6817D"/>
<path d="M48.6326 13.1147C48.6871 13.2194 48.6508 13.3415 48.6508 13.4462C48.6145 13.6729 48.56 13.8822 48.5056 14.109C48.4693 14.2659 48.3423 14.5276 48.4148 14.6846C48.433 14.7543 48.5237 14.8067 48.5963 14.8067C48.7778 14.8241 48.8867 14.6322 48.9412 14.4927" stroke="#AA3F37" stroke-miterlimit="10" stroke-linecap="round" stroke-linejoin="round"/>
<path d="M48.2869 14.9638C48.4139 15.0684 48.6314 15.0684 48.7765 15.051C48.9397 15.0161 49.0304 14.9114 49.1573 14.8242C49.121 15.0684 49.0666 15.2777 48.7765 15.3475C48.6133 15.3824 48.3957 15.3475 48.2688 15.2254C48.3051 15.1731 48.3051 15.0335 48.2869 14.9638Z" fill="#F9F9F9"/>
<path d="M47.9792 12.8533C48.0518 12.7138 48.3422 12.7312 48.4148 12.8184" stroke="#233332" stroke-miterlimit="10" stroke-linecap="round" stroke-linejoin="round"/>
<path d="M49.2302 12.9229C49.2847 12.8706 49.3936 12.8357 49.5025 12.8532C49.5569 12.8706 49.7021 12.9229 49.7021 12.9753" stroke="#233332" stroke-miterlimit="10" stroke-linecap="round" stroke-linejoin="round"/>
<path d="M4.53337 63.5581L3.59049 66.1221C3.59049 66.1221 -0.0359946 67.2036 0.000270184 68.4768C0.036535 69.7501 7.3439 68.2675 7.3439 68.2675L8.88515 63.5581H4.53337Z" fill="#4D60A4"/>
<path d="M5.33153 66.6982C6.02056 67.3261 6.87279 66.4715 7.92447 66.4889L8.88548 63.5586H4.53371L3.59082 66.1226C3.59082 66.1226 4.44304 65.8784 5.33153 66.6982Z" fill="#FADB81"/>
<path d="M1.46899 66.9246C1.46899 66.9246 2.61134 66.8549 3.3185 67.7444" stroke="#769494" stroke-miterlimit="10" stroke-linecap="round" stroke-linejoin="round"/>
<path d="M2.14014 66.6631C2.14014 66.6631 3.02862 66.1573 3.79019 67.448" stroke="#769494" stroke-miterlimit="10" stroke-linecap="round" stroke-linejoin="round"/>
<path d="M2.97412 66.3316C2.97412 66.3316 4.00767 65.7735 4.29779 67.2212" stroke="#769494" stroke-miterlimit="10" stroke-linecap="round" stroke-linejoin="round"/>
<path d="M27.0544 63.3662L27.2902 66.0872C27.2902 66.0872 30.5177 68.0233 30.137 69.2443C29.7562 70.4478 23.0834 67.2384 23.0834 67.2384L22.8296 62.3022L27.0544 63.3662Z" fill="#4D60A4"/>
<path d="M25.4407 66.2097C24.6066 66.6458 24.0082 65.6167 22.9928 65.3725L22.8296 62.3201L27.0363 63.384L27.272 66.105C27.2902 66.0876 26.5286 65.6341 25.4407 66.2097Z" fill="#FADB81"/>
<path d="M29.1215 67.378C29.1215 67.378 28.0336 67.0292 27.127 67.7094" stroke="#769494" stroke-miterlimit="10" stroke-linecap="round" stroke-linejoin="round"/>
<path d="M28.5418 66.9597C28.5418 66.9597 27.8165 66.262 26.7285 67.326" stroke="#769494" stroke-miterlimit="10" stroke-linecap="round" stroke-linejoin="round"/>
<path d="M27.8341 66.4364C27.8341 66.4364 26.9819 65.6515 26.3291 66.9597" stroke="#769494" stroke-miterlimit="10" stroke-linecap="round" stroke-linejoin="round"/>
<path d="M12.8383 28.4993C12.8383 28.4993 11.6597 33.1215 8.57715 40.5345C5.49464 47.9475 3.6814 64.6049 3.6814 64.6049H10.5173L19.1846 44.5462L22.249 64.1688L27.9426 63.7328C27.9426 63.7328 31.2245 47.9475 28.8855 39.5751C27.2354 33.6448 25.8029 29.2842 25.8029 29.2842L12.8383 28.4993Z" fill="#233332"/>
<path d="M19.1843 44.5459C19.1843 44.5459 21.1064 38.0574 20.9069 31.5688" stroke="#769494" stroke-miterlimit="10" stroke-linecap="round" stroke-linejoin="round"/>
<path d="M3.91699 62.5635H11.3875" stroke="#769494" stroke-miterlimit="10" stroke-linecap="round" stroke-linejoin="round"/>
<path d="M21.8865 61.8311L28.2147 62.302" stroke="#769494" stroke-miterlimit="10" stroke-linecap="round" stroke-linejoin="round"/>
<path d="M11.0249 34.1851C11.0249 34.1851 14.2162 33.9932 15.3585 30.3652" stroke="#769494" stroke-miterlimit="10" stroke-linecap="round" stroke-linejoin="round"/>
<path d="M24.3699 31.0454C24.3699 31.0454 24.7325 34.0106 27.398 34.4292" stroke="#769494" stroke-miterlimit="10" stroke-linecap="round" stroke-linejoin="round"/>
<path d="M20.635 37.0633C20.635 37.0633 21.9768 36.854 22.14 36.0517C22.2851 35.2319 22.2669 31.4644 22.2669 31.4644" stroke="#769494" stroke-miterlimit="10" stroke-linecap="round" stroke-linejoin="round"/>
<path d="M12.6572 29.1093C12.6572 29.1093 16.0299 31.0802 19.6019 31.4814C23.174 31.8826 26.1477 30.3651 26.1477 30.3651L24.1169 17.6322C24.1169 17.6322 21.1795 16.5333 19.1668 16.1496C17.1359 15.7659 14.1078 15.7833 14.1078 15.7833C14.1078 15.7833 13.2375 26.6325 12.6572 29.1093Z" fill="#FADB81"/>
<path d="M34.4516 11.3705C34.506 11.0043 34.5785 10.4984 34.7779 10.167C34.8505 10.0275 34.9774 9.95771 35.1043 9.8705C35.2857 9.73096 35.4126 9.48677 35.5032 9.27746C35.5939 9.05071 35.6664 8.82396 35.7752 8.59721C35.8296 8.49256 35.9384 8.33558 35.9384 8.23092C35.9384 8.03906 35.7752 8.0565 35.6483 8.16115C35.4851 8.31813 35.4851 8.6321 35.3038 8.77163C35.2494 8.80652 35.1587 8.85885 35.1043 8.80652C35.0499 8.73675 35.1769 8.57977 35.2131 8.51C35.2675 8.42279 35.7571 7.51579 35.2857 7.603C35.1043 7.63788 34.9955 8.0565 34.9411 8.21348C34.8867 8.35302 34.7961 8.75419 34.5966 8.75419C34.2702 8.77163 34.9593 7.56811 34.5604 7.42858C34.2884 7.32392 34.2158 7.82975 34.1796 7.98673C34.1614 8.09138 34.0889 8.56233 33.962 8.56233C33.7625 8.57977 34.0526 7.56811 33.7988 7.41113C33.4724 7.21927 33.5087 7.9344 33.4905 8.07394C33.4543 8.31813 33.3999 8.56233 33.3274 8.82396C33.3092 8.89373 33.3092 9.05071 33.2186 9.0856C33.0372 9.15537 32.9647 8.70187 32.9103 8.59721C32.8559 8.47512 32.8196 8.23092 32.6746 8.1786C32.4933 8.10883 32.457 8.30069 32.4751 8.42279C32.5114 8.68442 32.6021 8.92862 32.5839 9.20769C32.5658 9.48677 32.5658 9.71352 32.8015 9.90539C32.8922 9.9926 33.0372 10.01 33.1098 10.1147C33.2367 10.3066 33.2367 10.638 33.2367 10.8647C33.2367 11.0915 33.2186 11.3182 33.2367 11.5275C33.6537 11.545 34.0345 11.5275 34.4334 11.4054C34.4153 11.4229 34.3972 11.4403 34.4516 11.3705Z" fill="#E6817D"/>
<path d="M34.0524 9.87022C34.0524 9.87022 33.8892 9.32951 33.2183 9.06787" stroke="#D85145" stroke-miterlimit="10" stroke-linecap="round" stroke-linejoin="round"/>
<path d="M35.2311 9.08582L33.5811 8.63232" stroke="#D85145" stroke-miterlimit="10" stroke-linecap="round" stroke-linejoin="round"/>
<path d="M22.7205 30.2783V32.0226C22.7205 32.0226 23.7177 32.8075 25.1139 32.6854C26.5101 32.5633 27.1085 32.4237 27.1085 32.4237L26.7821 30.2958H22.7205V30.2783Z" fill="#3C4A77"/>
<path d="M32.6929 11.7367L32.8923 10.1146C32.8923 10.1146 33.9621 10.0448 35.032 10.603L34.488 12.1902L32.6929 11.7367Z" fill="#3C4A77"/>
<path d="M20.2903 16.4639C20.2903 16.4639 21.3782 17.0569 21.3782 19.0977C21.3782 21.1384 21.0518 30.1038 22.9195 30.8887C24.7871 31.6736 27.5432 31.7085 27.4526 30.0863C27.3619 28.4642 26.1471 27.0339 26.0927 25.6385C26.0383 24.2431 25.7844 22.6908 25.7844 22.6908C25.7844 22.6908 31.1335 22.6733 33.6176 22.5338C34.1616 22.4989 34.6512 22.2373 34.9594 21.8187C35.3039 21.3303 35.6847 20.5977 35.5759 19.7605C35.4127 18.4348 34.6693 14.7196 35.0319 12.6963C35.1045 12.2254 34.8143 11.7719 34.3429 11.6323L33.0555 11.2312C32.5115 11.0567 31.9494 11.3533 31.7862 11.8591L30.1906 16.8476C30.1906 16.8476 28.2323 16.8825 26.6004 16.4813C24.4607 15.958 22.2486 16.429 22.2486 16.429C22.2486 16.429 23.1552 16.0801 23.1552 15.5917C23.1552 15.1034 20.2903 14.9813 20.2903 14.9813V16.4639Z" fill="#4D60A4"/>
<path d="M21.7413 17.2836C21.7413 17.2836 21.6143 16.7603 22.2495 16.394" stroke="#3C4A77" stroke-miterlimit="10" stroke-linecap="round" stroke-linejoin="round"/>
<path d="M30.1724 16.8301C30.1724 16.8301 31.768 17.0045 32.2576 18.4871" stroke="#3C4A77" stroke-miterlimit="10" stroke-linecap="round" stroke-linejoin="round"/>
<path d="M24.9143 25.6382C24.9143 25.6382 26.5462 26.9812 26.9633 28.2545" stroke="#3C4A77" stroke-width="3" stroke-miterlimit="10"/>
<path d="M21.3054 12.7836C21.3054 12.7836 21.7043 12.2603 22.0307 12.4348C22.3571 12.6092 22.067 13.5511 21.5593 13.5685L21.3054 12.7836Z" fill="#AA3F37"/>
<path d="M17.8417 13.551L17.4609 16.1499C17.4609 16.1499 17.8599 17.7023 19.8363 17.9988C19.8363 17.9988 20.4891 18.0686 20.5434 16.6906C20.5434 16.6906 20.2715 14.458 20.3621 13.865L17.8417 13.551Z" fill="#E6817D"/>
<path d="M20.5074 16.5164C20.453 16.0978 20.3442 15.0513 20.3261 14.371L17.8601 14.1443C17.8601 15.9757 19.7821 16.5164 20.5074 16.5164Z" fill="#AA3F37"/>
<path d="M21.686 13.2544C21.5409 12.0857 22.23 10.2369 19.9271 9.90546C19.9271 9.90546 18.0232 9.59149 17.715 11.0043C17.6425 11.3706 17.5699 11.8764 17.5699 12.4172C17.3886 12.2776 17.1529 12.2078 16.8809 12.3648C16.3551 12.6788 16.9897 13.7777 17.715 13.673C17.9326 14.5451 18.404 15.33 19.3832 15.5568C21.414 16.08 21.831 14.423 21.686 13.2544Z" fill="#E6817D"/>
<path d="M20.0008 12.5918C20.0008 12.6964 19.9101 12.7836 19.8012 12.7836C19.6923 12.7836 19.6016 12.6964 19.6016 12.5918C19.6016 12.4871 19.6923 12.3999 19.8012 12.3999C19.9101 12.3999 20.0008 12.4697 20.0008 12.5918Z" fill="#233332"/>
<path d="M19.4561 12.0682C19.5649 11.9635 19.8735 11.9112 20.0731 12.0507" stroke="#233332" stroke-miterlimit="10" stroke-linecap="round" stroke-linejoin="round"/>
<path d="M21.3971 12.6613C21.3971 12.766 21.3063 12.8532 21.1974 12.8532C21.0885 12.8532 20.9978 12.766 20.9978 12.6613C20.9978 12.5567 21.0885 12.4695 21.1974 12.4695C21.3063 12.4695 21.3971 12.5567 21.3971 12.6613Z" fill="#233332"/>
<path d="M21.506 12.1732C21.4152 12.0685 21.0886 11.9988 20.8889 12.1208" stroke="#233332" stroke-miterlimit="10" stroke-linecap="round" stroke-linejoin="round"/>
<path d="M20.6349 12.4695C20.5079 12.6613 20.762 13.1497 20.8346 13.3416C20.889 13.4811 20.9616 13.7079 20.889 13.8474C20.7801 14.0393 20.6168 13.8474 20.5442 13.7253" stroke="#D85145" stroke-miterlimit="10" stroke-linecap="round" stroke-linejoin="round"/>
<path d="M20.8168 14.1961C20.4723 14.2484 20.164 14.1612 19.8377 14.0566C19.6563 13.9868 19.4931 13.9345 19.3843 13.7949C19.33 13.9345 19.3843 14.1961 19.4387 14.3356C19.5475 14.6147 19.8195 14.8066 20.1278 14.7891C20.4179 14.7717 20.7443 14.5449 20.7987 14.2659C20.7987 14.2484 20.7987 14.2484 20.8168 14.1961Z" fill="#233332"/>
<path d="M20.4539 14.388C20.4901 14.3531 20.4901 14.2484 20.5083 14.2135C20.2725 14.1961 20.0549 14.1438 19.8374 14.0566C19.656 13.9868 19.4928 13.9345 19.384 13.7949C19.3659 13.8647 19.3478 13.9693 19.3659 14.074C19.6198 14.2484 19.9099 14.3705 20.2181 14.4228C20.2907 14.4228 20.3995 14.4577 20.4539 14.388Z" fill="#F9F9F9"/>
<path d="M21.0879 9.60894C20.8521 9.43452 20.5439 9.39963 20.2538 9.31242C20.0543 9.26009 19.8186 9.19033 19.601 9.22521C19.4197 9.26009 19.2202 9.31242 19.0389 9.32986C19.1296 9.34731 19.2384 9.38219 19.329 9.41708C18.912 9.45196 18.5493 9.45196 18.2048 9.74848C18.0416 9.88802 17.8966 10.1497 17.6971 10.2194C17.7696 10.2892 17.8966 10.359 17.9872 10.4462C17.9872 10.4462 17.9872 10.4462 18.0054 10.4462C17.8784 10.6032 17.7878 10.7776 17.7334 11.0218C17.6608 11.3881 17.5883 11.8939 17.5883 12.4346C17.5702 12.4346 17.7696 12.5218 17.9147 12.7834C18.0054 12.923 18.096 13.0974 18.2048 13.2195C18.2048 12.8183 18.1142 12.4346 18.2955 12.0509C18.3861 11.8416 18.5131 11.6323 18.5312 11.3881C18.5312 11.1439 18.4768 10.8997 18.5131 10.6555C18.5312 10.5508 18.5493 10.4636 18.5856 10.3764C18.6581 10.3764 18.7307 10.3938 18.7851 10.4113C19.057 10.4636 19.2928 10.6032 19.5285 10.7253C19.9274 10.9171 20.3807 11.0218 20.834 11.0392C21.0697 11.0392 21.4143 11.0043 21.4868 10.7601C21.5774 10.359 21.378 9.83569 21.0879 9.60894Z" fill="#233332"/>
<path d="M7.68931 3.87033C7.76184 3.50404 7.8525 2.99821 7.77998 2.63192C7.74371 2.47494 7.65305 2.37029 7.58052 2.24819C7.45359 2.05633 7.41733 1.79469 7.41733 1.56794C7.39919 1.32375 7.41733 1.07956 7.38106 0.835365C7.36293 0.730711 7.32666 0.538846 7.36293 0.434192C7.41733 0.259769 7.58052 0.329538 7.65305 0.469077C7.76184 0.678384 7.65305 0.974904 7.77998 1.14933C7.81624 1.20165 7.88877 1.27142 7.9613 1.23654C8.03383 1.18421 7.9613 1.00979 7.9613 0.922577C7.94317 0.817923 7.77997 -0.193732 8.19702 0.0330185C8.36021 0.12023 8.30582 0.556288 8.32395 0.713269C8.32395 0.852808 8.26955 1.27142 8.45087 1.34119C8.75912 1.46329 8.50527 0.12023 8.94045 0.102788C9.2487 0.0853455 9.12177 0.591173 9.12177 0.748154C9.12177 0.852808 9.01298 1.30631 9.13991 1.35864C9.32123 1.4284 9.37563 0.381865 9.68388 0.312096C10.0647 0.224884 9.77454 0.905135 9.75641 1.02723C9.70201 1.27142 9.68388 1.53306 9.64761 1.77725C9.64761 1.84702 9.59322 2.004 9.66575 2.05633C9.8108 2.17842 10.0465 1.77725 10.1191 1.69004C10.2097 1.58539 10.3366 1.37608 10.4817 1.37608C10.6812 1.37608 10.6449 1.5505 10.5905 1.6726C10.4636 1.91679 10.3004 2.1261 10.2279 2.38773C10.1553 2.64937 10.0647 2.87612 9.79267 2.98077C9.66575 3.0331 9.53882 2.99821 9.43002 3.08543C9.2487 3.24241 9.13991 3.55637 9.06738 3.74823C8.99485 3.95754 8.94045 4.18429 8.84979 4.37616C8.45087 4.2715 8.08823 4.13196 7.76184 3.90521C7.70744 3.95754 7.70745 3.97498 7.68931 3.87033Z" fill="#E6817D"/>
<path d="M8.57764 2.59689C8.57764 2.59689 8.90402 2.12595 9.62932 2.09106" stroke="#D85145" stroke-miterlimit="10" stroke-linecap="round" stroke-linejoin="round"/>
<path d="M7.72559 1.48071L9.43003 1.55048" stroke="#D85145" stroke-miterlimit="10" stroke-linecap="round" stroke-linejoin="round"/>
<path d="M7.12671 4.7247V2.96303C7.12671 2.96303 7.81574 2.52697 9.66525 3.34676L9.23007 5.4224L7.12671 4.7247Z" fill="#3C4A77"/>
<path d="M11.1704 29.2839L10.4995 30.6793C10.4995 30.6793 11.3699 31.691 12.893 31.7782C15.1958 31.9177 16.5195 32.1619 16.5195 32.1619L17.1541 30.1561L11.1704 29.2839Z" fill="#3C4A77"/>
<path d="M18.0788 16.3244C18.6953 15.3825 17.9881 14.3185 17.0452 14.1615C15.9029 13.9697 15.232 13.5685 15.232 13.5685L15.3952 14.5976C15.0688 14.5104 14.7061 14.4406 14.3072 14.3709C11.8593 14.022 9.3752 11.7371 9.3752 11.7371C9.3752 11.7371 9.77412 8.99862 9.64719 7.25439C9.59279 6.46948 9.59279 5.89389 9.62906 5.51016C9.66532 5.09154 9.41147 4.69037 8.99442 4.53339L7.65262 4.02756C7.07239 3.80081 6.40149 4.1671 6.31082 4.76014C6.20203 5.37062 6.03884 6.06831 5.80312 6.55669C5.36794 7.44625 2.95633 11.615 2.99259 15.0685C2.99259 15.8186 3.42777 16.4988 4.09867 16.8651C5.04155 17.3535 6.51028 18.0861 7.88834 18.6093C10.9346 19.7431 12.9654 21.749 12.9654 21.749C12.9654 21.749 12.6934 25.7258 10.9346 27.8887C9.61092 29.5282 11.9863 30.4004 12.9292 30.5922C14.2891 30.8713 17.2809 31.6736 17.8612 29.7201C18.4233 27.8363 19.6925 20.4757 18.0788 16.3244Z" fill="#4D60A4"/>
<path d="M15.4136 14.5803C15.4136 14.5803 16.8279 15.1734 17.2993 16.2722" stroke="#3C4A77" stroke-miterlimit="10" stroke-linecap="round" stroke-linejoin="round"/>
<path d="M9.39373 11.7371L9.08521 14.4232" stroke="#3C4A77" stroke-miterlimit="10" stroke-linecap="round" stroke-linejoin="round"/>
<path d="M12.3853 27.7665C12.3853 27.7665 13.3281 25.5513 14.5611 24.7141" stroke="#3C4A77" stroke-width="3" stroke-miterlimit="10"/>
<path d="M23.2463 22.4119C23.2463 22.4119 23.609 21.1386 23.5908 20.9816C23.5546 20.7025 23.065 20.3537 22.8655 20.1444C22.6479 19.9002 22.5029 19.6037 22.2672 19.3769C22.1765 19.2723 21.4875 18.7316 21.7594 18.592C22.0133 18.4699 22.4666 19.1327 22.7386 19.2025C22.5029 18.9758 22.0496 18.4002 22.0858 17.999C22.104 17.8943 22.2309 17.8594 22.3034 17.9292C22.4666 18.1036 22.7023 18.3827 22.793 18.5397C22.7023 18.3827 22.1765 17.5455 22.521 17.4583C22.7567 17.4059 23.2282 18.6444 23.6089 18.7141C23.6633 18.3653 23.3188 17.5455 23.5546 17.4059C23.8991 17.1966 23.9353 17.9467 23.9716 18.1211C24.0623 18.5048 24.2617 18.9932 24.5881 19.2374C24.5156 18.7141 24.9507 18.0339 25.1321 18.4002C25.1865 18.4874 25.0414 18.8013 25.0595 18.9234C25.0777 19.2025 25.2046 19.4641 25.2046 19.7432C25.2227 20.249 24.9507 20.5281 24.7876 20.9467C24.5881 21.4526 24.5518 22.534 24.5518 22.534L23.2463 22.4119Z" fill="#E78C60"/>
<path d="M24.2619 20.3362C24.0441 20.0571 24.4071 19.4641 24.4978 19.2373" stroke="#D85145" stroke-miterlimit="10" stroke-linecap="round" stroke-linejoin="round"/>
<path d="M22.9558 19.6213C23.0646 19.412 23.2641 19.2725 23.4454 19.1155C23.6086 18.9759 23.935 18.662 24.1163 18.6445" stroke="#D85145" stroke-miterlimit="10" stroke-linecap="round" stroke-linejoin="round"/>
<path d="M43.1369 16.2894C43.1369 16.2196 43.0644 16.1673 43.0463 16.115C42.9556 15.9754 42.9375 15.8185 42.9194 15.644C42.9012 15.4522 42.9012 15.2603 42.9194 15.0859C42.9194 15.051 42.9375 14.8766 42.9919 14.8591C43.1188 14.7894 43.1551 15.365 43.1551 15.4347C43.1188 15.3126 43.137 15.1208 43.1551 14.9987C43.1913 14.8591 43.2457 14.894 43.2639 14.9987C43.3183 15.2429 43.3545 15.487 43.4089 15.7312C43.3727 15.644 43.3727 15.5219 43.3908 15.4347C43.3908 15.365 43.3727 15.208 43.4633 15.1556C43.5721 15.0859 43.5903 15.2952 43.5903 15.3475C43.6447 15.6091 43.7353 15.8708 43.8985 16.0975C43.9892 16.2196 44.098 16.3068 44.1524 16.4464C44.1886 16.5859 44.2068 16.7255 44.2249 16.865C44.1342 16.8475 44.0254 16.7778 43.9166 16.7603C43.7353 16.708 43.5721 16.6557 43.4089 16.551C43.3364 16.4987 43.2639 16.4638 43.2095 16.394C43.1913 16.3592 43.1551 16.3068 43.1369 16.2894Z" fill="#D85145"/>
<path d="M44.5876 18.4349C44.497 18.0686 44.0255 17.4581 43.6629 17.179C43.0464 16.6906 42.5568 16.5511 42.4662 15.6964C42.448 15.5394 42.4662 15.365 42.448 15.1906C42.4299 15.0511 42.3392 14.9115 42.3574 14.7545C42.7019 14.6673 42.7925 15.4522 42.9376 15.6441C43.1189 15.9057 43.4816 16.2546 43.7717 16.4116C43.7898 16.429 43.7898 16.429 43.7717 16.4116C43.5904 16.2197 43.3002 15.679 43.5904 15.4697C43.7536 15.7313 43.7354 15.836 44.0799 15.9755C44.2794 16.0627 44.5695 16.0802 44.8959 16.3767C45.1316 16.6034 45.1316 17.0744 45.2948 17.3534C45.4761 17.6674 45.6937 18.086 45.8751 18.4H44.5876V18.4349Z" fill="#E78C60"/>
<path d="M21.342 61.9536L20.0184 66.663C20.0184 66.663 18.2414 67.134 16.7183 67.6224C16.1743 67.7968 16.3012 68.5817 16.8815 68.5817H22.158C22.3937 68.5817 22.6113 68.4422 22.6838 68.2154L24.8597 61.9536H21.342Z" fill="#E78C60"/>
<path d="M21.0151 63.0874L24.3515 63.3664L24.8411 61.9536H21.3415L21.0151 63.0874Z" fill="#D85145"/>
<path d="M18.9123 66.9595C18.2777 67.1339 17.4617 67.3781 16.7183 67.6223C16.1743 67.7967 16.3012 68.5816 16.8815 68.5816H22.158C22.3937 68.5816 22.6113 68.4421 22.6838 68.2153L22.9921 67.3432C20.236 68.1804 19.2024 67.3083 18.9123 66.9595Z" fill="#233332"/>
<path d="M35.885 61.9536L34.8515 66.663C34.8515 66.663 36.6285 67.134 38.1516 67.6224C38.6956 67.7968 38.5686 68.5817 37.9884 68.5817H32.7119C32.4762 68.5817 32.2586 68.4422 32.186 68.2154L32.3674 61.9536H35.885Z" fill="#E78C60"/>
<path d="M32.3489 63.0002L35.6671 62.9129L35.8847 61.9536H32.367L32.3489 63.0002Z" fill="#D85145"/>
<path d="M35.9576 66.9597C36.5922 67.1341 37.4082 67.3783 38.1516 67.6225C38.6956 67.797 38.5686 68.5819 37.9884 68.5819H32.7119C32.4762 68.5819 32.2586 68.4423 32.186 68.2156L32.2223 67.2039C34.9603 68.0411 35.6675 67.3086 35.9576 66.9597Z" fill="#233332"/>
<path d="M26.8181 38.162L40.3812 38.1794C40.3812 38.1794 40.0366 34.9875 39.8553 33.1037C39.674 31.22 39.6015 29.8071 39.6015 29.8071L28.8308 29.9467C28.8308 29.9467 29.6286 33.9933 26.8181 38.162Z" fill="#769494"/>
<path d="M37.9519 33.6271L35.5222 33.4352L30.0099 32.9817C30.0099 32.9817 28.5049 34.412 26.8186 39.3481C25.1323 44.2843 22.1042 55.9009 20.3091 62.8081H25.912L33.2194 44.0924L30.7534 62.372H36.5195C36.5195 62.372 37.9882 47.8949 39.2031 42.4878C40.2185 37.9528 37.9519 33.6271 37.9519 33.6271Z" fill="#3C4A77"/>
<path d="M33.2202 44.0925C33.2202 44.0925 36.3753 39.2261 36.0851 34.1155" stroke="#233332" stroke-miterlimit="10" stroke-linecap="round" stroke-linejoin="round"/>
<path d="M36.012 36.3305C36.012 36.3305 37.0999 35.9991 36.9548 33.9758" stroke="#233332" stroke-miterlimit="10" stroke-linecap="round" stroke-linejoin="round"/>
<path d="M20.7991 60.907L26.5652 61.1163" stroke="#233332" stroke-miterlimit="10" stroke-linecap="round" stroke-linejoin="round"/>
<path d="M30.9712 60.6976L36.5922 60.5581" stroke="#233332" stroke-miterlimit="10" stroke-linecap="round" stroke-linejoin="round"/>
<path d="M29.9912 32.9643C29.9912 32.9643 35.5941 35.005 37.9332 33.6271C37.9332 33.6271 39.819 27.8014 39.3294 26.563C38.731 25.0455 38.1327 23.1966 36.2469 22.9349C36.2469 22.9349 32.2215 22.2373 31.2242 23.1966C30.2269 24.1559 29.556 25.7257 30.3539 28.5688C31.1517 31.4119 29.9912 32.9643 29.9912 32.9643Z" fill="#D85145"/>
<path d="M35.8848 22.8824C35.8848 22.8824 38.786 26.5627 38.6046 30.7837C38.4233 35.0048 37.6436 40.5514 37.6436 40.5514C37.6436 40.5514 39.5475 40.2026 40.4179 38.5979C40.4179 38.5979 39.3299 29.1441 39.6019 27.7488C39.6019 27.7488 48.4505 29.2488 49.5747 28.1325C50.699 27.0162 50.699 24.8185 49.4297 22.987C48.1604 21.1556 46.1658 17.4927 46.1658 17.4927L44.0806 17.7718L45.6944 23.8242C45.6944 23.8242 41.8685 23.6498 40.1459 23.301C38.4233 22.9521 37.9519 22.4463 35.8848 22.8824Z" fill="#9BB9B9"/>
<path d="M45.9849 25.0627L45.6948 23.8069C45.6948 23.8069 47.0185 24.365 47.4718 25.2372" stroke="#769494" stroke-miterlimit="10" stroke-linecap="round" stroke-linejoin="round"/>
<path d="M39.6023 27.7489L39.8201 25.6035" stroke="#769494" stroke-miterlimit="10" stroke-linecap="round" stroke-linejoin="round"/>
<path d="M33.8531 20.1438L33.3635 23.2485C33.3635 23.2485 34.3427 24.8358 35.1405 24.8707C35.5032 24.8881 35.7933 24.0858 35.9565 23.5276L36.0653 20.545L33.8531 20.1438Z" fill="#E78C60"/>
<path d="M33.9257 20.9114C33.9257 20.9114 33.5268 23.2138 35.9566 23.5103L36.0291 21.2079L33.9257 20.9114Z" fill="#D85145"/>
<path d="M36.2467 17.3183C35.322 17.1788 34.3791 18.0684 34.0346 19.3765C33.9983 19.2893 33.9077 18.9405 33.4543 19.08C33.128 19.1672 33.0373 20.2835 33.8895 20.4056C33.8895 21.6092 34.4516 22.6034 35.3038 22.7255C36.3011 22.8824 37.3347 21.801 37.5885 20.301C37.8605 18.8184 37.244 17.4753 36.2467 17.3183Z" fill="#E78C60"/>
<path d="M35.4307 20.0214C35.4307 19.9342 35.5033 19.8818 35.5759 19.8818C35.6666 19.8818 35.721 19.9516 35.721 20.0214C35.721 20.1086 35.6484 20.1609 35.5759 20.1609C35.5033 20.1609 35.4307 20.0911 35.4307 20.0214Z" fill="#233332"/>
<path d="M36.7363 20.3881C36.7363 20.3009 36.8089 20.2485 36.8815 20.2485C36.9723 20.2485 37.0267 20.3183 37.0267 20.3881C37.0267 20.4753 36.9541 20.5276 36.8815 20.5276C36.7908 20.5276 36.7363 20.4578 36.7363 20.3881Z" fill="#233332"/>
<path d="M35.2859 19.4288C35.2859 19.4288 35.7029 19.1149 36.0474 19.4637" stroke="#233332" stroke-miterlimit="10" stroke-linecap="round" stroke-linejoin="round"/>
<path d="M36.8091 19.7079C36.8091 19.7079 37.2265 19.5858 37.3354 20.0218" stroke="#233332" stroke-miterlimit="10" stroke-linecap="round" stroke-linejoin="round"/>
<path d="M36.5013 19.7429C36.2835 20.0569 36.4106 20.4057 36.3561 20.7546C36.338 20.8592 36.2654 21.0685 36.1384 21.0685C36.0839 21.0685 36.0295 21.0337 35.9932 20.9988C35.975 20.9813 35.9387 20.9116 35.9387 20.9116" stroke="#D85145" stroke-miterlimit="10" stroke-linecap="round" stroke-linejoin="round"/>
<path d="M35.2856 21.2773C35.3763 21.3646 35.467 21.4343 35.5758 21.4867C35.739 21.5739 35.9021 21.6262 36.1016 21.6436" stroke="#D85145" stroke-miterlimit="10" stroke-linecap="round" stroke-linejoin="round"/>
<path d="M33.6724 19.1323C33.6724 19.1323 33.6905 19.3591 33.7812 19.5335C33.8718 19.7079 34.0531 19.9172 34.0531 19.9172L34.579 18.5218C34.7059 18.2776 34.9235 18.1032 35.1774 18.0334C35.4493 17.9462 35.812 17.8765 36.1928 17.8939C36.4285 17.8939 36.6461 17.9811 36.8274 18.1207C37.0631 18.2951 37.3895 18.5916 37.589 18.9753C37.589 18.9753 37.7159 19.7428 37.5527 20.5451C37.5527 20.5451 37.861 20.4405 37.9153 20.0393C37.9697 19.6381 37.9697 18.7835 37.8428 18.3997C37.7522 18.0858 37.5708 17.3009 36.1202 17.1264C35.6851 17.0741 35.3043 17.1439 34.996 17.2485C34.579 17.3881 34.2526 17.702 34.1075 18.1032L33.6724 19.1323Z" fill="#233332"/>
<path d="M33.4544 22.7431C33.4544 22.7431 31.2785 22.6035 30.0092 23.5105C28.74 24.4175 24.4426 27.0164 24.4426 27.0164L25.0047 21.5396H22.9376C22.9376 21.5396 19.0573 27.4699 19.4199 33.1387C19.4199 33.1387 20.3265 33.9759 21.5958 33.1387C22.8651 32.3015 28.7944 29.3363 28.7944 29.3363C28.7944 29.3363 28.9213 31.5689 28.7944 32.6154C28.6675 33.662 26.7998 38.1621 26.7998 38.1621C26.7998 38.1621 28.6131 40.7784 32.2395 41.3366C32.2395 41.3366 32.5841 33.6271 33.6539 31.0979C34.9775 28.063 33.4544 22.7431 33.4544 22.7431Z" fill="#9BB9B9"/>
<path d="M33.3812 27.749L33.3087 28.5164C33.3087 28.5164 32.4202 28.499 32.0575 28.813C31.9125 28.935 31.7674 29.0397 31.6405 29.1095C31.4592 29.2141 31.2597 29.1967 31.0965 29.0746C30.7701 28.813 30.4256 28.6036 30.0448 28.4467L29.7366 28.3246L29.8091 27.5222L33.3812 27.749Z" stroke="#769494" stroke-miterlimit="10" stroke-linecap="round" stroke-linejoin="round"/>
<path d="M31.1878 28.3597C31.206 28.2725 31.2786 28.1852 31.3875 28.2027C31.4782 28.2201 31.569 28.2899 31.5508 28.3945C31.5327 28.4818 31.4601 28.569 31.3512 28.5515C31.2423 28.5341 31.1697 28.4469 31.1878 28.3597Z" fill="#769494"/>
<path d="M29.7914 28.342L29.6826 30.1909C29.6645 30.5747 29.9002 30.9409 30.281 31.0979L30.9882 31.3596C31.2239 31.4468 31.4959 31.4642 31.7497 31.377L32.3843 31.1677C32.7289 31.0456 32.9646 30.7665 33.019 30.4177L33.2366 28.5165" stroke="#769494" stroke-miterlimit="10" stroke-linecap="round" stroke-linejoin="round"/>
<path d="M24.4417 27.0166C24.4417 27.0166 24.4599 27.9585 23.6802 29.3015" stroke="#769494" stroke-miterlimit="10" stroke-linecap="round" stroke-linejoin="round"/>
<path d="M33.2915 19.9524C33.2008 19.9698 33.1646 20.4408 33.092 20.5629C32.7656 21.1036 32.2398 21.5396 31.7865 21.9931C31.0249 22.7432 30.1002 23.4932 29.7738 24.5223C29.2298 26.1967 30.1908 27.5747 31.4964 28.6038C31.986 28.9875 32.7656 29.4759 32.7838 30.1736C33.0376 29.7027 33.4365 29.2492 33.6541 28.7259C33.908 28.1503 33.8899 27.5398 33.9443 26.9293C34.0531 27.034 34.1618 27.191 34.2525 27.2956C34.3069 26.7898 34.4338 26.3014 34.3794 25.7781C34.325 25.2723 34.1437 24.8014 33.9261 24.3479C33.7629 23.999 33.5997 23.5978 33.5091 23.2141C33.4365 22.8827 33.4909 22.4815 33.5453 22.1501C33.6541 21.5571 33.7629 20.9466 33.8717 20.3536C33.6723 20.3187 33.4184 20.2315 33.2915 19.9524Z" fill="#233332"/>
<path d="M61.7226 63.2795L61.1968 68.5994L66.4733 68.9134C66.836 68.9308 66.9992 68.4948 66.709 68.2855L64.2249 66.5587L65.1678 62.9307L61.7226 63.2795Z" fill="#AA3F37"/>
<path d="M65.186 62.9133L61.7227 63.2796L61.6501 64.1517L64.8052 64.3436L65.186 62.9133Z" fill="#852B22"/>
<path d="M65.5123 67.4481C65.1315 68.3551 62.321 67.5876 61.3237 67.2737L61.1968 68.5993L66.4733 68.9133C66.836 68.9307 66.9992 68.4946 66.709 68.2853L65.5123 67.4481Z" fill="#233332"/>
<path d="M65.241 34.2378L67.0723 34.0459C67.0723 34.0459 70.8801 44.1276 65.4404 63.5409H60.8167C60.8167 63.5409 61.7233 60.2443 61.143 57.0349C60.5628 53.8255 62.2491 49.4824 62.2491 49.4824C62.2491 49.4824 56.3742 39.8367 59.6381 34.2552H65.241V34.2378Z" fill="#007F7A"/>
<path d="M59.3662 58.552L56.4287 64.2731L61.6327 66.5406C61.9591 66.6801 62.2855 66.3313 62.086 66.0348L60.2546 63.3486L62.63 60.0695L59.3662 58.552Z" fill="#AA3F37"/>
<path d="M58.4045 60.4183L61.8678 61.116L62.6294 60.0695L59.3656 58.552L58.4045 60.4183Z" fill="#852B22"/>
<path d="M61.1794 64.7092C60.436 65.4767 57.9518 63.6801 57.0815 63.0173L56.4287 64.2732L61.6327 66.5407C61.9591 66.6802 62.2855 66.3314 62.086 66.0349L61.1794 64.7092Z" fill="#233332"/>
<path d="M59.0395 34.2379C59.0395 34.2379 55.5218 39.0694 57.4619 42.4707C59.4202 45.8719 63.9896 49.3604 63.9896 49.3604C63.9896 49.3604 60.5444 50.4941 59.9642 54.6803C59.384 58.8665 58.3867 59.4944 58.3867 59.4944L62.7747 60.6805C62.7747 60.6805 71.3332 52.1337 71.2244 49.6046C71.1156 47.0754 65.2589 34.2205 65.2589 34.2205H59.0395V34.2379Z" fill="#00918C"/>
<path d="M59.021 58.5002L64.0437 59.3724" stroke="#007F7A" stroke-miterlimit="10" stroke-linecap="round" stroke-linejoin="round"/>
<path d="M61.1427 58.8664L66.6912 49.3604C66.6912 49.3604 57.5162 42.1916 60.4174 36.5054" stroke="#007F7A" stroke-miterlimit="10" stroke-linecap="round" stroke-linejoin="round"/>
<path d="M59.9822 40.1858C59.9822 40.1858 61.9949 39.8544 61.9223 36.645" stroke="#007F7A" stroke-miterlimit="10" stroke-linecap="round" stroke-linejoin="round"/>
<path d="M58.6044 16.4811C56.8637 16.6381 57.4802 17.894 56.8819 18.3823C56.6099 18.6091 56.3016 18.8358 56.2654 19.1847C56.211 19.551 56.4104 19.8824 56.1203 20.1963C55.8846 20.458 55.5763 20.5103 55.4675 20.8766C55.3587 21.2429 55.5763 21.5569 55.4313 21.9057C55.2862 22.2371 55.0324 22.4115 54.978 22.7953C54.9236 23.1267 54.7785 23.8244 55.0142 24.1034C55.5401 24.6965 56.5011 25.0628 57.4802 24.9407C58.4956 24.8186 60.1457 24.2255 61.1611 24.2779C62.793 24.3476 64.7151 24.9581 65.9299 23.4057C66.1294 23.1615 66.2382 22.9174 66.2382 22.6208C66.2382 22.2371 65.9662 22.0452 65.9118 21.7138C65.8393 21.2952 66.2744 20.8766 66.2382 20.4231C66.22 19.9347 65.8393 19.5859 65.3497 19.394C65.0414 19.2545 64.4612 19.1847 64.298 18.8707C64.0986 18.487 64.4431 18.0858 64.0986 17.7195C63.754 17.3707 63.2826 17.4928 62.8474 17.3533C62.3941 17.2137 62.4485 17.0044 62.3216 16.6904C62.1221 16.2021 61.5963 16.3242 61.1248 16.0974C60.6353 15.8707 59.7105 15.6265 59.4023 16.1148C59.1665 16.4986 58.8039 16.4463 58.6044 16.4811Z" fill="#233332"/>
<path d="M68.124 15.7661C67.6163 15.2428 67.0361 14.7195 66.8366 14.6846C66.4377 14.6497 65.8575 14.7195 65.4948 14.5625C65.4767 14.2835 65.5311 13.9869 65.5129 13.6904C65.5129 13.4462 65.4042 13.2195 65.386 12.9927C65.3679 12.6788 65.5492 12.8532 65.7487 12.7311C65.9663 12.5915 66.0932 12.3648 66.3108 12.2253C66.7278 11.9287 67.2899 12.2427 67.6344 12.5392C67.8702 12.7311 67.6707 12.923 67.7795 13.1671C67.8702 13.3416 68.124 13.3067 68.2328 13.516C68.3053 13.6381 68.2509 13.7602 68.2872 13.8823C68.3053 13.9695 68.8312 14.4753 69.3208 15.0335L68.124 15.7661Z" fill="#AA3F37"/>
<path d="M65.6763 13.4814C66.0389 13.4117 66.329 13.1151 66.6373 12.9233C66.9274 12.7489 66.9274 13.0977 66.8549 13.307C66.8005 13.4465 66.6917 13.5861 66.5466 13.6559C66.9274 13.5686 67.5983 13.6384 67.562 14.1442" stroke="#852B22" stroke-miterlimit="10" stroke-linecap="round" stroke-linejoin="round"/>
<path d="M66.9998 13.5685C67.308 13.3417 67.6888 13.1499 67.8701 12.801" stroke="#852B22" stroke-miterlimit="10" stroke-linecap="round" stroke-linejoin="round"/>
<path d="M73.0194 16.4114C71.7502 15.9231 70.9705 15.487 70.5534 15.1905C70.3358 15.0335 70.0638 14.9812 69.7918 15.0335L69.3023 14.3184L67.3802 15.5742L68.033 16.0975C67.9242 16.3068 67.9061 16.5684 67.9967 16.7952L68.0874 17.0219C68.3775 19.6208 70.1001 20.9464 70.1001 20.9464L62.2669 23.4058L60.2905 23.4407C60.2905 23.4407 56.9722 23.6151 55.5579 25.5512C54.1254 27.4873 51.9495 29.406 51.9495 29.406C51.9495 29.406 50.3539 28.0978 48.867 28.2548C48.6857 28.2722 48.5044 28.342 48.3231 28.4466C47.7428 28.3943 47.1263 28.6908 46.7637 29.249C46.2922 29.9641 46.4192 30.8537 47.0175 31.3072C47.0357 31.9525 47.2351 32.5979 47.6884 33.1212C49.139 34.7956 53.4001 36.4527 55.3403 35.5806C57.2805 34.7084 58.4591 32.0049 58.4591 32.0049C58.4591 32.0049 59.13 33.6619 58.4591 34.7608C57.7882 35.8422 61.1789 36.8538 64.0801 36.6445C66.9813 36.4352 67.9423 35.2143 67.2533 34.0631C65.8208 31.6909 68.7946 29.092 68.305 27.1036C70.8435 26.1443 74.6513 24.5221 75.8843 23.057C77.8064 20.7895 75.558 17.3708 73.0194 16.4114Z" fill="#FADB81"/>
<path d="M68.3596 27.33C68.3234 27.0335 68.2327 26.7544 68.0514 26.4928C67.3805 25.5335 66.3651 24.9579 65.0051 24.1555" stroke="#E6817D" stroke-miterlimit="10" stroke-linecap="round" stroke-linejoin="round"/>
<path d="M58.4601 31.9874C58.4601 31.9874 58.7505 29.2664 58.1516 28.3594" stroke="#E6817D" stroke-miterlimit="10" stroke-linecap="round" stroke-linejoin="round"/>
<path d="M51.9319 29.4058C51.9319 29.4058 53.7633 30.1558 54.2528 31.7605" stroke="#E6817D" stroke-miterlimit="10" stroke-linecap="round" stroke-linejoin="round"/>
<path d="M70.1001 20.9634C70.1001 20.9634 71.8408 21.1552 72.3485 21.7483" stroke="#E6817D" stroke-miterlimit="10" stroke-linecap="round" stroke-linejoin="round"/>
<path d="M47.471 30.8189C46.9814 30.5049 45.5127 29.7026 45.5127 29.7026C45.1863 29.6328 44.733 29.5979 44.4248 29.441C43.9896 29.1968 44.2616 28.5165 44.4429 28.1851C44.6605 27.8014 44.4973 27.6793 44.4429 27.2956C44.3704 26.8072 44.6786 26.7548 45.0775 26.8421C45.3858 26.9118 45.3133 26.7897 45.5671 26.6676C45.7303 26.5979 45.8028 26.6676 45.966 26.7548C46.1292 26.8595 46.2743 26.999 46.4375 27.1211C46.6369 27.2607 46.8545 27.3304 46.9452 27.5398C47.0721 27.8188 47.0177 28.1502 47.1084 28.4468C47.2716 28.97 48.3776 29.6852 48.3776 29.6852C48.6678 30.4701 47.9969 31.0108 47.471 30.8189Z" fill="#AA3F37"/>
<path d="M45.3129 26.8071C45.3129 26.8595 45.2585 26.9641 45.2403 27.0339C45.2041 27.1385 45.1859 27.2432 45.1497 27.3478C45.0953 27.5048 45.0409 27.6967 45.0953 27.8537C45.1497 27.9758 45.3673 28.1327 45.4761 27.9583C45.5486 27.8188 45.5667 27.6444 45.6574 27.5048C45.603 27.7141 45.5667 27.9932 45.6574 28.2025C45.7662 28.4641 46.0926 28.6735 46.3827 28.6909" stroke="#852B22" stroke-miterlimit="10" stroke-linecap="round" stroke-linejoin="round"/>
<path d="M45.7123 28.2896C45.7486 28.3244 45.7304 28.4116 45.7304 28.464C45.7304 28.5861 45.7304 28.7082 45.7123 28.8128C45.676 29.0396 45.5489 29.3884 45.2585 29.3884" stroke="#852B22" stroke-miterlimit="10" stroke-linecap="round" stroke-linejoin="round"/>
<path d="M61.9237 20.4584C62.4314 20.2142 63.0842 20.3363 63.4468 20.7898C63.8639 21.3131 63.7732 22.0631 63.2292 22.4642C62.6853 22.8654 61.9056 22.7782 61.4885 22.2549C61.1077 21.784 61.1621 21.1386 61.561 20.72" stroke="#FADB81" stroke-miterlimit="10" stroke-linecap="round" stroke-linejoin="round"/>
<path d="M62.2312 23.8242L61.7417 21.0683L59.6383 20.9636L59.9284 23.737C59.6383 23.7893 59.4207 23.9637 59.4026 24.1207C59.2575 24.7835 60.1641 25.1847 61.0526 25.3765C61.9411 25.5684 62.7571 25.3068 62.8659 24.8184C62.9565 24.4521 62.6846 24.0858 62.2312 23.8242Z" fill="#AA3F37"/>
<path d="M62.25 23.9641L61.7423 21.0512L59.6389 20.9465C59.6389 20.964 60.5093 23.1094 62.25 23.9641Z" fill="#852B22"/>
<path d="M62.485 19.8649C62.5394 19.394 62.4306 18.9056 62.1767 18.5219C62.1405 18.5044 62.1223 18.5044 62.0861 18.5044C61.9047 18.5044 61.7778 18.5044 61.5784 18.4521C61.3608 18.3998 61.2882 18.3475 61.125 18.487C60.9256 18.644 60.5992 18.5742 60.3454 18.5044C60.1822 18.4696 59.892 18.2951 59.747 18.4347C59.6745 18.487 59.6745 18.6091 59.6926 18.6963C59.6926 18.7835 59.7289 18.8707 59.6745 18.9579C59.6382 19.0277 59.5475 19.08 59.5294 19.1498C59.5113 19.2893 59.6382 19.4289 59.6382 19.5684C59.6382 19.6556 59.5657 19.7254 59.5475 19.8126C59.4931 20.0917 59.8014 20.2836 59.8376 20.5278C59.8739 20.7719 59.4931 20.5975 59.3843 20.4929C59.3299 20.4231 59.2755 20.3359 59.203 20.301C59.1123 20.2661 59.0036 20.2836 58.9129 20.2661C58.8041 20.2312 58.6953 20.0917 58.5865 20.0568C58.5684 20.0743 58.5684 20.0917 58.5502 20.0917C58.1695 20.6673 58.786 21.2254 59.6201 21.1906C59.9464 21.9231 60.6899 23.1615 61.9229 22.7953C63.4823 22.3592 62.3762 21.0161 62.485 19.8649Z" fill="#AA3F37"/>
<path d="M60.5814 20.0918C60.5451 20.022 60.5814 19.9348 60.654 19.8999C60.7266 19.865 60.8173 19.8999 60.8536 19.9697C60.8899 20.0395 60.8536 20.1267 60.781 20.1616C60.7084 20.1964 60.6177 20.1616 60.5814 20.0918Z" fill="#233332"/>
<path d="M61.8145 19.9172C61.7782 19.8475 61.8145 19.7602 61.8871 19.7254C61.9597 19.6905 62.0505 19.7254 62.0868 19.7951C62.1231 19.8649 62.0868 19.9521 62.0142 19.987C61.9416 20.0219 61.8508 19.987 61.8145 19.9172Z" fill="#233332"/>
<path d="M60.1826 19.4291C60.1826 19.4291 60.5453 19.1675 60.9986 19.3594" stroke="#233332" stroke-miterlimit="10" stroke-linecap="round" stroke-linejoin="round"/>
<path d="M61.7241 19.2897C61.7241 19.2897 62.0505 18.9932 62.4676 19.2897" stroke="#233332" stroke-miterlimit="10" stroke-linecap="round" stroke-linejoin="round"/>
<path d="M61.5243 19.429C61.4699 19.7952 61.724 20.0569 61.8147 20.4057C61.851 20.5104 61.8692 20.7197 61.7421 20.772C61.6877 20.7895 61.6151 20.7895 61.5788 20.772C61.5425 20.7546 61.488 20.7022 61.488 20.7197" stroke="#852B22" stroke-miterlimit="10" stroke-linecap="round" stroke-linejoin="round"/>
<path d="M61.887 21.4176C61.7057 21.4525 61.5244 21.4525 61.343 21.4001C61.2343 21.3827 61.1073 21.3304 60.9985 21.2606C61.0892 21.2431 61.1436 21.1908 61.2161 21.1559C61.3068 21.1036 61.343 21.1036 61.4337 21.1385C61.47 21.1559 61.5244 21.1908 61.5425 21.1908C61.5969 21.1908 61.5788 21.1734 61.6332 21.1385C61.7057 21.1036 61.7782 21.0862 61.8508 21.1385C61.9233 21.2083 61.9233 21.3304 61.887 21.4176Z" stroke="#D85145" stroke-miterlimit="10" stroke-linecap="round" stroke-linejoin="round"/>
<path d="M59.4212 21.0334C59.9833 21.1381 60.4003 21.6265 60.4003 22.2021C60.4003 22.8649 59.8382 23.3882 59.1673 23.3882C58.4783 23.3882 57.9343 22.8474 57.9343 22.2021C57.9343 21.609 58.3876 21.1207 58.9679 21.0334" stroke="#FADB81" stroke-miterlimit="10" stroke-linecap="round" stroke-linejoin="round"/>
<path d="M70.5362 14.1788C70.6631 13.4636 70.8625 11.702 71.0257 11.5624C71.334 11.3182 71.8598 11.074 72.0774 10.7426C71.9323 10.4984 71.7329 10.2717 71.5697 10.0275C71.4428 9.81819 71.4065 9.57399 71.2796 9.38213C71.1164 9.12049 71.062 9.34724 70.8263 9.36468C70.5724 9.36468 70.3367 9.24259 70.0647 9.22515C69.557 9.19026 69.2487 9.76586 69.14 10.1845C69.0674 10.4636 69.3394 10.5159 69.3757 10.7775C69.4119 10.9694 69.1762 11.0915 69.1944 11.3182C69.2125 11.4578 69.3031 11.5275 69.3575 11.6671C69.3938 11.7543 69.2306 13.4811 69.1218 14.1962L70.5362 14.1788Z" fill="#E6817D"/>
<path d="M71.8413 10.7424C71.4786 10.6726 71.1885 10.3761 70.8803 10.1843C70.5901 10.0098 70.5902 10.3587 70.6627 10.568C70.7171 10.7075 70.8259 10.8471 70.9709 10.9168C70.5901 10.8296 69.9192 10.8994 69.9555 11.4052" stroke="#D85145" stroke-miterlimit="10" stroke-linecap="round" stroke-linejoin="round"/>
<path d="M70.5183 10.8471C70.2101 10.6203 69.8293 10.4284 69.6479 10.0796" stroke="#D85145" stroke-miterlimit="10" stroke-linecap="round" stroke-linejoin="round"/>
<path d="M81.56 12.4868C81.6325 11.981 81.9045 9.87048 81.9045 9.87048C82.0496 9.60884 82.2853 9.31233 82.3397 9.01581C82.4122 8.59719 81.7776 8.37044 81.4512 8.30067C81.0523 8.21346 81.0704 8.05648 80.8166 7.7774C80.5265 7.446 80.2907 7.62042 80.1276 7.91694C80.0006 8.14369 79.9462 8.03904 79.7286 8.14369C79.5836 8.21346 79.5836 8.30067 79.5654 8.45765C79.5473 8.63207 79.5655 8.8065 79.5473 8.96348C79.5292 9.17279 79.4567 9.34721 79.5473 9.53908C79.6742 9.78327 79.9462 9.94025 80.0913 10.167C80.3633 10.5682 80.2182 12.4171 80.2182 12.4171C80.6171 13.0624 81.3787 12.9578 81.56 12.4868Z" fill="#E6817D"/>
<path d="M80.0005 8.07422C80.0368 8.1091 80.1455 8.12655 80.1999 8.16143C80.2906 8.19631 80.3813 8.24864 80.4719 8.28353C80.5989 8.33585 80.7983 8.40562 80.8527 8.54516C80.9071 8.64982 80.889 8.89401 80.7077 8.84168C80.5626 8.8068 80.4357 8.71958 80.2725 8.6847C80.4538 8.77191 80.6714 8.91145 80.762 9.10332C80.889 9.33007 80.8527 9.64403 80.6895 9.85334" stroke="#D85145" stroke-width="0.8906" stroke-miterlimit="10" stroke-linecap="round" stroke-linejoin="round"/>
<path d="M80.7986 9.19067C80.7986 9.22556 80.8711 9.27789 80.9074 9.29533C80.998 9.3651 81.0706 9.43487 81.1612 9.48719C81.3426 9.60929 81.6508 9.71394 81.8321 9.52208" stroke="#D85145" stroke-width="0.8906" stroke-miterlimit="10" stroke-linecap="round" stroke-linejoin="round"/>
<path d="M80.0734 62.1633C80.0734 62.1633 81.8504 65.6867 81.9773 67.9193C81.9773 67.9193 80.0915 68.7914 76.6101 68.5298C76.6101 68.5298 75.4859 68.0763 77.1178 67.3437C78.7497 66.6111 78.8948 66.2972 78.8948 66.2972L77.5349 62.5471L80.0734 62.1633Z" fill="#E6817D"/>
<path d="M80.0737 62.1626L77.5352 62.5463L78.5506 65.3197L81.3248 65.1278C80.7627 63.558 80.0737 62.1626 80.0737 62.1626Z" fill="#AA3F37"/>
<path d="M76.6101 68.5288C80.0915 68.7904 81.9773 67.9183 81.9773 67.9183C81.9592 67.7264 81.9411 67.5346 81.9048 67.3253C81.1795 67.4125 80.3635 67.4997 79.6564 67.5695C78.1151 67.709 77.9157 66.959 77.9157 66.959C77.6981 67.0636 77.4442 67.2032 77.1178 67.3427C75.4859 68.0927 76.6101 68.5288 76.6101 68.5288Z" fill="#4D60A4"/>
<path d="M71.3522 61.9011L69.7202 67.1338C69.7202 67.1338 67.8345 68.8955 68.0702 70.2037C68.2697 71.3025 71.0077 69.0525 71.8417 68.3373C72.0049 68.1978 72.1137 68.0408 72.2044 67.849L74.6885 61.9011H71.3522Z" fill="#E6817D"/>
<path d="M74.5611 62.1976L73.1649 61.9011H71.3516L70.2637 65.3721H73.2374L74.5611 62.1976Z" fill="#AA3F37"/>
<path d="M69.0488 67.8664C68.5411 68.4943 67.9246 69.4362 68.0696 70.2036C68.2691 71.3025 71.0071 69.0524 71.8412 68.3373C72.0044 68.1978 72.1132 68.0408 72.2038 67.8489L72.367 67.4478C71.9681 67.814 71.406 68.2152 70.717 68.3548C69.8285 68.5466 69.3026 68.1629 69.0488 67.8664Z" fill="#4D60A4"/>
<path d="M72.6028 23.6323C72.5665 22.987 72.1495 22.1672 72.2945 21.3648C72.4396 20.5101 72.8022 19.795 73.5819 19.3415C75.3045 18.3124 76.5738 18.9752 77.8974 20.3008C79.203 21.5916 79.475 23.3881 80.1459 24.9928C80.7986 26.5452 82.2673 27.7138 83.174 29.1267C84.135 30.6441 84.6427 33.5396 82.4849 34.3245C81.9228 34.5338 81.2882 34.4814 80.708 34.5687C79.8557 34.7082 79.0942 35.0745 78.2782 35.3361C77.3172 35.6501 76.4287 36.1036 75.4314 36.3478C74.1803 36.6443 72.1132 36.7141 71.0978 35.7722C69.6834 34.4466 71.2247 31.4814 71.8593 30.1209C72.8385 28.0452 73.2193 25.987 72.7841 23.8067C72.7478 23.8591 72.7297 23.894 72.6028 23.6323Z" fill="#233332"/>
<path d="M72.9111 35.3015C72.9111 35.3015 69.3572 38.6156 69.2302 41.9122C68.9039 50.0926 77.5168 60.5929 77.2448 64.9011L82.1768 64.4825C82.1768 64.4825 80.9619 55.6567 77.553 49.5868C77.553 49.5868 81.9773 42.1738 80.2729 35.8073L72.9111 35.3015Z" fill="#D85145"/>
<path d="M75.4858 35.4934L69.8647 64.9361H75.105C75.105 64.9361 76.9364 51.2787 78.9128 48.2612C80.8893 45.2611 82.3942 42.9762 80.2909 35.8248L75.4858 35.4934Z" fill="#D85145"/>
<path d="M72.095 53.2323C72.095 53.2323 73.2554 37.4993 74.3978 35.4062" stroke="#AA3F37" stroke-miterlimit="10" stroke-linecap="round" stroke-linejoin="round"/>
<path d="M75.7217 60.8195L76.6102 55.9531" stroke="#AA3F37" stroke-miterlimit="10" stroke-linecap="round" stroke-linejoin="round"/>
<path d="M77.7158 36.7666C77.7158 36.7666 79.2027 40.3248 81.306 41.8423" stroke="#AA3F37" stroke-width="0.8908" stroke-miterlimit="10" stroke-linecap="round" stroke-linejoin="round"/>
<path d="M73.3826 35.3367C73.3826 35.3367 72.0952 39.0519 73.5639 39.0519" stroke="#AA3F37" stroke-miterlimit="10" stroke-linecap="round" stroke-linejoin="round"/>
<path d="M70.2642 62.9128H75.3956" stroke="#AA3F37" stroke-miterlimit="10" stroke-linecap="round" stroke-linejoin="round"/>
<path d="M76.9548 63.0175L81.8325 62.4768" stroke="#AA3F37" stroke-miterlimit="10" stroke-linecap="round" stroke-linejoin="round"/>
<path d="M80.3634 32.3017C80.853 29.04 82.7931 26.9992 81.9772 22.3421C81.3969 19.0455 82.1585 11.9116 82.1585 11.9116H79.7287C78.1331 14.1966 77.8067 21.3828 77.5891 23.8596C77.5347 24.5747 76.9001 25.1329 76.1567 25.1329C76.1567 25.1329 75.4495 25.2724 74.7967 25.6213C71.2246 23.6154 70.9889 13.2721 70.9889 13.2721H68.4504L68.1784 17.685C67.2355 23.5631 70.6263 27.662 72.2582 29.2493C72.1857 29.3888 72.1131 29.5284 72.0587 29.6854C71.678 30.8365 72.5483 31.1679 72.9291 32.2668C73.1285 32.8424 72.7296 34.4645 72.3126 35.9123C71.9318 37.2379 80.2909 36.9588 80.2727 35.8425C80.2727 34.011 80.3634 32.3017 80.3634 32.3017Z" fill="#3C4A77"/>
<path d="M72.0767 29.6854C72.4574 28.5342 73.6904 28.0632 73.7448 26.8423" stroke="#233332" stroke-width="0.8908" stroke-miterlimit="10" stroke-linecap="round" stroke-linejoin="round"/>
<path d="M73.7454 32.04C73.7454 32.04 75.5042 31.7261 76.8279 32.2144" stroke="#233332" stroke-width="0.8908" stroke-miterlimit="10" stroke-linecap="round" stroke-linejoin="round"/>
<path d="M77.626 23.5632L77.3538 26.8424" stroke="#233332" stroke-width="0.8908" stroke-miterlimit="10" stroke-linecap="round" stroke-linejoin="round"/>
<path d="M74.8342 25.9349L74.9974 24.0163L76.8288 23.4407L77.1008 24.7314C77.1914 25.1151 77.0645 25.4989 76.7744 25.7779L75.3238 27.4698L74.8342 25.9349Z" fill="#E6817D"/>
<path d="M76.8288 23.4407L74.9974 24.0163L74.8342 25.9349C76.8288 25.2721 76.8288 23.4407 76.8288 23.4407Z" fill="#D85145"/>
<path d="M77.463 22.0278L76.8284 22.6732C76.5383 22.2197 75.8674 22.0976 75.2146 21.8883C74.3987 21.6441 74.1811 21.051 74.1811 21.051C73.9453 22.3592 73.4195 22.7953 73.4014 22.8127C73.4014 22.865 73.4014 22.9174 73.4195 22.9697C73.6008 24.2779 74.4893 25.2372 75.4322 25.1151C76.085 25.0279 76.6289 24.3825 76.8284 23.4232C77.9345 23.0569 77.463 22.0278 77.463 22.0278Z" fill="#E6817D"/>
<path d="M75.5593 22.1322C75.5593 22.1322 75.106 21.8706 74.8159 22.2543" stroke="#233332" stroke-miterlimit="10" stroke-linecap="round" stroke-linejoin="round"/>
<path d="M74.0907 22.4286C74.0907 22.4286 73.6914 22.2542 73.5281 22.6728" stroke="#233332" stroke-miterlimit="10" stroke-linecap="round" stroke-linejoin="round"/>
<path d="M74.3799 22.4636C74.5795 22.7776 74.4343 23.1264 74.4706 23.4753C74.4888 23.5799 74.5432 23.7892 74.6703 23.7892C74.7247 23.7892 74.7792 23.7544 74.8336 23.7195C74.8517 23.702 74.888 23.6323 74.9062 23.6323" stroke="#D85145" stroke-miterlimit="10" stroke-linecap="round" stroke-linejoin="round"/>
<path d="M74.7429 24.0859C74.9424 24.0859 75.1418 23.9812 75.3232 23.894C75.4319 23.8417 75.5407 23.7719 75.6133 23.7021C75.6133 23.7021 75.8127 24.2952 75.1962 24.4696L74.7429 24.0859Z" fill="#F9F9F9"/>
<path d="M74.1813 22.8301C74.0542 22.7778 73.8001 22.8999 73.7275 23.0046" stroke="#D85145" stroke-miterlimit="10" stroke-linecap="round" stroke-linejoin="round"/>
<path d="M75.4145 22.5161C75.3056 22.4289 75.0152 22.5161 74.9426 22.6033" stroke="#D85145" stroke-miterlimit="10" stroke-linecap="round" stroke-linejoin="round"/>
</svg>
