<svg width="44" height="42" viewBox="0 0 44 42" fill="none" xmlns="http://www.w3.org/2000/svg">
<path fill-rule="evenodd" clip-rule="evenodd" d="M9.53286 0H33.764C38.9923 0 43.2968 4.12046 43.2968 9.17005V32.4588C43.2968 37.5083 39.0133 41.649 33.764 41.649H9.53286C4.28349 41.6288 0 37.5083 0 32.4588V9.17005C0 4.12046 4.28349 0 9.53286 0Z" fill="url(#paint0_linear_392_4795)"/>
<path d="M27.9899 34.9836H15.3074C10.688 34.9836 6.92944 31.368 6.92944 26.9244V14.7044C6.92944 10.2608 10.688 6.64526 15.3074 6.64526H27.9899C32.6094 6.64526 36.3679 10.2608 36.3679 14.7044V26.9042C36.3679 31.368 32.6094 34.9836 27.9899 34.9836ZM15.3074 9.06907C12.0738 9.06907 9.44914 11.5939 9.44914 14.7044V26.9042C9.44914 30.0148 12.0738 32.5396 15.3074 32.5396H27.9899C31.2235 32.5396 33.8482 30.0148 33.8482 26.9042V14.7044C33.8482 11.5939 31.2235 9.06907 27.9899 9.06907H15.3074Z" fill="white"/>
<path d="M21.6492 28.0752C17.4917 28.0752 14.1111 24.8232 14.1111 20.824C14.1111 16.8247 17.4917 13.5728 21.6492 13.5728C25.8067 13.5728 29.1873 16.8247 29.1873 20.824C29.1873 24.8232 25.8067 28.0752 21.6492 28.0752ZM21.6492 15.9966C18.8775 15.9966 16.6308 18.1578 16.6308 20.824C16.6308 23.4901 18.8775 25.6514 21.6492 25.6514C24.4209 25.6514 26.6676 23.4901 26.6676 20.824C26.6676 18.1578 24.4209 15.9966 21.6492 15.9966Z" fill="white"/>
<path d="M31.3296 13.1484C31.3296 14.118 30.5107 14.8855 29.5238 14.8855C28.5159 14.8855 27.718 14.0978 27.718 13.1484C27.718 12.1789 28.5369 11.4114 29.5238 11.4114C30.5107 11.4114 31.3296 12.1789 31.3296 13.1484Z" fill="white"/>
<defs>
<linearGradient id="paint0_linear_392_4795" x1="21.6427" y1="0.703085" x2="21.6427" y2="40.4543" gradientUnits="userSpaceOnUse">
<stop stop-color="#FEC053"/>
<stop offset="0.3273" stop-color="#F2203E"/>
<stop offset="0.6485" stop-color="#B729A8"/>
<stop offset="1" stop-color="#5342D6"/>
</linearGradient>
</defs>
</svg>
